{"glyphs":{"0":{"ha":778,"x_min":147,"x_max":842,"o":"m 251 690 q 276 743 251 690 q 387 863 301 796 q 589 931 472 931 q 774 865 706 931 q 842 674 842 800 q 794 356 842 510 q 643 95 746 203 q 412 -12 540 -12 q 215 51 283 -12 q 147 232 147 114 q 174 467 147 350 q 251 690 201 585 m 792 674 q 736 831 792 776 q 583 885 681 885 q 408 820 485 885 q 288 656 332 756 q 197 240 197 450 q 253 85 197 136 q 403 33 308 33 q 573 93 497 33 q 694 247 649 153 q 792 674 792 446 z "},"1":{"ha":778,"x_min":356,"x_max":718,"o":"m 356 740 l 674 918 l 718 918 l 508 0 l 458 0 l 653 853 l 367 696 l 356 740 z "},"2":{"ha":778,"x_min":97,"x_max":831,"o":"m 781 736 q 581 886 781 886 q 350 861 472 886 l 307 851 l 310 894 q 581 932 453 932 q 831 736 831 932 q 763 552 831 639 q 567 363 694 465 l 178 46 l 693 46 l 682 0 l 97 0 l 107 42 l 515 379 q 713 568 646 486 q 781 736 781 650 z "},"3":{"ha":778,"x_min":111,"x_max":818,"o":"m 589 931 q 818 749 818 931 q 760 586 818 653 q 615 490 701 519 q 740 299 740 443 q 636 71 740 154 q 379 -12 532 -12 q 253 -1 321 -12 q 149 22 186 10 l 111 33 l 124 78 q 390 33 268 33 q 601 106 511 33 q 690 294 690 178 q 644 417 690 372 q 501 463 597 463 l 319 463 l 332 508 l 513 508 q 683 575 599 508 q 768 739 768 642 q 724 851 768 817 q 603 885 681 885 q 350 861 467 885 l 311 854 l 315 899 q 589 931 454 931 z "},"4":{"ha":778,"x_min":114,"x_max":764,"o":"m 533 0 l 575 183 l 114 183 l 124 224 l 596 917 l 653 917 l 179 229 l 586 229 l 663 563 l 713 563 l 636 229 l 764 229 l 753 183 l 625 183 l 583 0 l 533 0 z "},"5":{"ha":778,"x_min":106,"x_max":865,"o":"m 533 571 q 768 382 768 571 q 654 105 768 219 q 378 -10 540 -10 q 146 19 267 -10 l 106 29 l 119 74 q 383 36 271 36 q 620 137 522 36 q 718 382 718 238 q 668 488 718 451 q 525 525 618 525 q 408 506 474 525 q 301 467 342 486 l 261 449 l 215 454 l 357 917 l 865 917 l 854 871 l 390 871 l 275 501 q 533 571 419 571 z "},"6":{"ha":778,"x_min":168,"x_max":872,"o":"m 860 861 q 658 885 746 885 q 510 859 569 885 q 409 794 450 833 q 333 700 368 754 q 247 497 278 611 q 522 564 388 564 q 717 508 657 564 q 778 356 778 453 q 680 89 778 190 q 413 -12 582 -12 q 231 67 293 -12 q 168 296 168 147 q 239 625 168 465 q 332 778 278 711 q 469 888 386 846 q 651 931 553 931 q 842 911 743 931 l 872 904 l 860 861 m 524 518 q 393 501 465 518 q 278 467 321 483 l 235 449 q 219 296 219 403 q 411 33 219 33 q 645 121 563 33 q 728 336 728 208 q 681 473 728 428 q 524 518 635 518 z "},"7":{"ha":778,"x_min":231,"x_max":869,"o":"m 318 869 l 329 917 l 869 917 l 844 813 l 275 -12 l 231 7 l 794 822 l 806 869 l 318 869 z "},"8":{"ha":778,"x_min":92,"x_max":888,"o":"m 611 931 q 888 746 888 931 q 820 586 888 664 q 633 483 753 508 q 756 413 724 456 q 789 306 789 369 q 784 249 789 279 q 754 169 779 219 q 689 82 729 119 q 567 16 649 44 q 375 -12 485 -12 q 92 164 92 -12 q 163 365 92 290 q 353 483 233 440 q 253 549 281 511 q 225 644 225 586 q 245 748 225 701 q 308 837 265 794 q 428 905 350 879 q 611 931 507 931 m 146 169 q 208 69 146 106 q 367 33 271 33 q 526 52 464 33 q 626 99 588 71 q 690 164 664 128 q 738 297 738 226 q 697 401 738 368 q 561 458 656 433 l 410 458 q 223 360 300 429 q 146 169 146 290 m 599 885 q 351 816 426 885 q 275 650 275 747 q 421 503 275 546 l 572 503 q 679 536 625 513 q 783 614 733 560 q 833 742 833 668 q 778 850 833 815 q 599 885 724 885 z "},"9":{"ha":778,"x_min":108,"x_max":826,"o":"m 601 931 q 826 674 826 931 q 793 450 826 578 q 616 94 731 200 q 336 -12 501 -12 q 142 8 239 -12 l 108 17 l 128 61 q 349 35 242 35 q 733 414 635 35 q 428 356 550 356 q 250 425 307 356 q 213 542 213 469 q 225 635 213 583 q 365 851 260 771 q 601 931 471 931 m 457 403 q 697 447 543 403 l 747 463 q 775 664 775 579 q 589 883 775 883 q 392 817 478 883 q 278 635 307 750 q 267 543 267 590 q 296 461 267 496 q 457 403 343 403 z "}," ":{"ha":306,"x_min":0,"x_max":0,"o":""},"!":{"ha":288,"x_min":124,"x_max":390,"o":"m 188 293 l 344 972 l 390 972 l 226 293 l 188 293 m 124 0 l 150 115 l 200 115 l 174 0 l 124 0 z "},"\"":{"ha":440,"x_min":256,"x_max":564,"o":"m 494 675 l 449 675 l 515 969 l 564 969 l 494 675 m 301 675 l 256 675 l 322 969 l 371 969 l 301 675 z "},"#":{"ha":778,"x_min":99,"x_max":893,"o":"m 793 264 l 626 264 l 563 0 l 513 0 l 576 264 l 315 264 l 251 0 l 201 0 l 265 264 l 99 264 l 110 308 l 276 308 l 354 622 l 188 622 l 199 667 l 365 667 l 432 931 l 482 931 l 415 667 l 676 667 l 743 931 l 793 931 l 726 667 l 893 667 l 882 622 l 715 622 l 638 308 l 804 308 l 793 264 m 588 308 l 665 622 l 404 622 l 326 308 l 588 308 z "},"$":{"ha":778,"x_min":139,"x_max":839,"o":"m 614 931 l 639 929 l 699 1097 l 744 1097 l 683 926 q 818 908 756 921 l 839 904 l 831 864 q 668 885 747 878 l 528 494 q 671 426 628 464 q 714 306 714 389 q 628 74 714 160 q 396 -12 542 -12 q 346 -11 363 -12 l 290 -167 l 247 -167 l 303 -8 l 139 11 l 147 54 q 319 35 233 42 l 472 463 q 330 529 374 492 q 286 646 286 567 q 374 858 286 786 q 614 931 463 931 m 664 304 q 633 398 664 369 q 513 451 601 426 l 361 32 l 404 32 q 595 106 526 32 q 664 304 664 179 m 335 646 q 369 560 335 588 q 488 507 403 533 l 624 888 l 604 888 q 406 826 478 888 q 335 646 335 765 z "},"%":{"ha":778,"x_min":226,"x_max":779,"o":"m 488 861 q 418 931 488 931 q 337 896 368 931 q 291 805 306 861 q 276 718 276 749 q 346 642 276 642 q 427 678 396 642 q 473 773 458 715 q 488 861 488 831 m 258 8 l 699 974 l 743 967 l 303 1 l 258 8 m 429 975 q 536 869 536 975 q 525 789 536 835 q 451 645 501 693 q 334 597 400 597 q 242 644 268 597 q 228 708 228 671 q 239 790 228 744 q 429 975 286 975 m 669 378 q 778 272 778 378 q 767 192 778 238 q 692 48 743 96 q 576 0 642 0 q 483 47 510 0 q 469 110 469 74 q 481 193 469 147 q 669 378 528 378 m 729 263 q 658 333 729 333 q 578 299 608 333 q 533 208 547 265 q 519 122 519 151 q 586 44 519 44 q 718 192 681 44 q 729 263 729 233 z "},"&":{"ha":876,"x_min":115,"x_max":865,"o":"m 626 985 q 794 840 794 985 q 503 515 794 622 l 689 257 q 781 457 747 358 l 833 457 q 722 217 794 333 l 865 29 l 831 -4 l 693 174 q 361 -12 553 -12 q 176 37 238 -12 q 115 197 115 86 q 183 430 115 344 q 410 574 250 515 q 376 704 376 646 q 442 908 376 832 q 626 985 508 985 m 361 35 q 661 214 540 35 l 433 532 q 228 403 288 481 q 168 197 168 325 q 361 35 168 35 m 622 940 q 478 874 528 940 q 429 717 429 808 q 479 554 429 626 q 679 675 617 607 q 742 842 742 743 q 622 940 742 940 z "},"'":{"ha":247,"x_min":256,"x_max":371,"o":"m 301 675 l 256 675 l 322 969 l 371 969 l 301 675 z "},"(":{"ha":310,"x_min":140,"x_max":494,"o":"m 296 642 q 276 591 296 642 q 222 401 256 540 q 189 157 189 261 q 203 -139 189 -36 l 208 -172 l 163 -172 q 140 103 140 -62 q 172 408 140 268 q 247 656 203 549 q 414 992 340 878 l 446 1039 l 494 1039 q 392 856 447 967 q 296 642 336 744 z "},")":{"ha":308,"x_min":15,"x_max":369,"o":"m 214 233 q 234 284 214 233 q 288 474 254 335 q 321 718 321 614 q 306 1014 321 911 l 301 1047 l 347 1047 q 369 772 369 938 q 338 467 369 607 q 261 219 307 326 q 94 -117 169 -3 l 64 -164 l 15 -164 q 118 19 63 -92 q 214 233 174 131 z "},"*":{"ha":565,"x_min":253,"x_max":667,"o":"m 667 721 l 476 721 l 535 542 l 490 528 l 432 708 l 279 599 l 253 636 l 406 747 l 254 858 l 282 896 l 435 783 l 493 963 l 538 949 l 479 768 l 667 768 l 667 721 z "},"+":{"ha":778,"x_min":163,"x_max":776,"o":"m 163 325 l 163 372 l 443 372 l 443 667 l 493 667 l 493 372 l 776 372 l 776 325 l 493 325 l 493 28 l 443 28 l 443 325 l 163 325 z "},",":{"ha":263,"x_min":21,"x_max":196,"o":"m 60 -179 l 21 -179 l 140 115 l 196 115 l 60 -179 z "},"-":{"ha":532,"x_min":178,"x_max":528,"o":"m 178 350 l 189 399 l 528 399 l 515 350 l 178 350 z "},".":{"ha":249,"x_min":100,"x_max":176,"o":"m 100 0 l 126 115 l 176 115 l 150 0 l 100 0 z "},"/":{"ha":536,"x_min":63,"x_max":699,"o":"m 108 -1 l 63 17 l 653 972 l 699 953 l 108 -1 z "},":":{"ha":249,"x_min":100,"x_max":288,"o":"m 211 489 l 238 604 l 288 604 l 261 489 l 211 489 m 100 0 l 126 115 l 176 115 l 150 0 l 100 0 z "},";":{"ha":303,"x_min":44,"x_max":318,"o":"m 44 -179 l 164 115 l 219 115 l 83 -179 l 44 -179 m 242 489 l 268 604 l 318 604 l 292 489 l 242 489 z "},"<":{"ha":778,"x_min":140,"x_max":729,"o":"m 729 619 l 186 349 l 729 78 l 729 21 l 140 324 l 140 374 l 729 674 l 729 619 z "},"=":{"ha":778,"x_min":175,"x_max":764,"o":"m 175 442 l 175 489 l 764 489 l 764 442 l 175 442 m 175 207 l 175 254 l 764 254 l 764 207 l 175 207 z "},">":{"ha":778,"x_min":206,"x_max":794,"o":"m 749 349 l 206 619 l 206 674 l 794 374 l 794 324 l 206 21 l 206 78 l 749 349 z "},"?":{"ha":560,"x_min":215,"x_max":683,"o":"m 476 985 q 522 985 476 985 q 626 947 568 985 q 683 831 683 908 q 660 703 683 754 q 593 610 636 653 q 443 481 550 568 q 321 315 336 393 l 310 261 l 263 261 q 271 321 265 292 q 419 522 290 418 q 590 683 549 626 q 631 826 631 739 q 464 938 631 938 q 297 914 399 938 l 263 907 l 263 951 q 476 985 383 985 m 215 1 l 239 115 l 290 115 l 265 1 l 215 1 z "},"@":{"ha":1272,"x_min":128,"x_max":1331,"o":"m 890 996 q 1105 965 1015 996 q 1243 883 1194 935 q 1331 624 1331 790 q 1303 417 1331 536 q 1247 219 1276 299 q 1190 94 1217 139 q 1126 24 1163 49 q 1058 -7 1089 0 q 983 -14 1028 -14 q 861 75 865 -14 q 594 -12 686 -12 q 451 67 481 -12 q 438 133 438 106 q 438 183 438 160 q 450 275 439 213 q 804 707 525 707 q 1029 679 890 707 q 908 100 908 206 q 927 45 908 57 q 987 33 946 33 q 1053 40 1028 33 q 1106 70 1078 47 q 1158 136 1135 93 q 1256 426 1210 228 q 1282 610 1282 542 q 1265 740 1282 678 q 1206 847 1249 803 q 879 947 1108 947 q 448 815 603 947 q 214 363 293 683 q 181 148 181 224 q 195 6 181 72 q 256 -111 210 -60 q 601 -225 357 -225 l 790 -211 l 783 -261 q 569 -274 653 -274 q 405 -253 486 -274 q 273 -198 324 -232 q 189 -112 222 -164 q 128 122 128 -19 q 160 363 128 226 q 410 852 240 708 q 890 996 579 996 m 797 663 q 607 567 675 663 q 499 274 539 471 q 488 174 488 217 q 604 38 488 38 q 861 122 700 38 q 901 331 864 157 q 972 642 939 506 q 797 663 889 663 z "},"A":{"ha":772,"x_min":44,"x_max":736,"o":"m 44 0 l 560 972 l 683 972 l 736 0 l 686 0 l 669 300 l 254 300 l 96 0 l 44 0 m 588 926 l 279 344 l 667 344 l 638 926 l 588 926 z "},"B":{"ha":806,"x_min":119,"x_max":861,"o":"m 642 972 q 808 932 754 972 q 861 788 861 892 q 804 608 861 685 q 665 504 747 531 q 799 338 799 469 q 703 89 799 178 q 435 0 608 0 l 119 0 l 343 972 l 642 972 m 539 476 l 279 476 l 181 46 l 446 46 q 667 124 589 46 q 746 336 746 201 q 691 446 746 415 q 539 476 636 476 m 632 926 l 382 926 l 289 522 l 550 522 q 738 601 665 522 q 810 793 810 679 q 769 898 810 869 q 632 926 728 926 z "},"C":{"ha":708,"x_min":168,"x_max":878,"o":"m 425 -12 q 168 264 168 -12 q 244 646 168 463 q 475 939 331 854 q 651 985 557 985 q 844 965 754 985 l 878 958 l 867 914 q 645 938 746 938 q 460 872 544 938 q 325 703 376 806 q 221 264 221 490 q 272 90 221 146 q 432 35 322 35 q 626 54 538 35 l 658 61 l 657 15 q 425 -12 536 -12 z "},"D":{"ha":844,"x_min":119,"x_max":897,"o":"m 449 0 l 119 0 l 344 972 l 661 972 q 842 903 788 972 q 897 706 897 833 q 869 461 897 578 q 790 240 842 344 q 648 67 738 135 q 449 0 558 0 m 747 270 q 770 319 747 270 q 819 478 793 368 q 844 700 844 588 q 801 869 844 813 q 651 926 757 926 l 383 926 l 182 46 l 461 46 q 625 109 550 46 q 747 270 700 172 z "},"E":{"ha":708,"x_min":119,"x_max":868,"o":"m 119 0 l 344 972 l 868 972 l 857 926 l 383 926 l 290 522 l 686 522 l 675 476 l 279 476 l 181 46 l 654 46 l 643 0 l 119 0 z "},"F":{"ha":674,"x_min":119,"x_max":854,"o":"m 119 0 l 344 972 l 854 972 l 843 926 l 383 926 l 282 485 l 681 485 l 669 439 l 271 439 l 169 0 l 119 0 z "},"G":{"ha":799,"x_min":168,"x_max":924,"o":"m 442 -12 q 168 243 168 -12 q 243 647 168 460 q 337 819 282 744 q 474 940 392 894 q 654 985 557 985 q 886 958 764 985 l 924 950 l 910 908 q 643 939 768 939 q 488 894 558 939 q 368 778 417 850 q 286 614 319 706 q 221 243 221 440 q 444 33 221 33 q 633 56 532 33 l 668 64 l 754 435 l 571 435 l 582 481 l 815 481 l 710 26 q 442 -12 568 -12 z "},"H":{"ha":869,"x_min":119,"x_max":975,"o":"m 700 0 l 807 464 l 276 464 l 169 0 l 119 0 l 344 972 l 394 972 l 288 510 l 818 510 l 925 972 l 975 972 l 750 0 l 700 0 z "},"I":{"ha":289,"x_min":119,"x_max":394,"o":"m 119 0 l 344 972 l 394 972 l 169 0 l 119 0 z "},"J":{"ha":351,"x_min":10,"x_max":461,"o":"m 461 972 l 271 149 q 238 24 251 64 q 195 -49 224 -17 q 125 -90 167 -81 q 10 -99 83 -99 l 18 -53 q 157 -15 122 -53 q 224 161 192 22 l 411 972 l 461 972 z "},"K":{"ha":706,"x_min":119,"x_max":900,"o":"m 622 0 l 436 457 l 275 457 l 169 0 l 119 0 l 344 972 l 394 972 l 285 503 l 438 503 l 840 972 l 900 972 l 478 481 l 675 0 l 622 0 z "},"L":{"ha":613,"x_min":119,"x_max":611,"o":"m 600 0 l 119 0 l 344 972 l 394 972 l 181 46 l 611 46 l 600 0 z "},"M":{"ha":1075,"x_min":119,"x_max":1181,"o":"m 119 0 l 344 972 l 446 972 l 546 75 l 1079 972 l 1181 972 l 956 0 l 906 0 l 1121 926 l 1103 926 l 572 29 l 508 29 l 403 926 l 383 926 l 169 0 l 119 0 z "},"N":{"ha":857,"x_min":119,"x_max":963,"o":"m 119 0 l 344 972 l 457 972 l 665 46 l 699 46 l 913 972 l 963 972 l 738 0 l 628 0 l 418 926 l 383 926 l 169 0 l 119 0 z "},"O":{"ha":883,"x_min":169,"x_max":936,"o":"m 221 272 q 276 88 221 142 q 449 33 331 33 q 651 96 567 33 q 824 352 764 181 q 883 700 883 524 q 825 881 883 824 q 658 939 767 939 q 467 879 549 939 q 286 618 351 794 q 221 272 221 442 m 936 699 q 876 342 936 513 q 707 79 817 171 q 450 -12 597 -12 q 236 52 303 -12 q 169 283 169 117 q 228 615 169 449 q 396 883 288 782 q 648 985 504 985 q 864 915 792 985 q 936 699 936 846 z "},"P":{"ha":760,"x_min":119,"x_max":869,"o":"m 524 356 l 251 356 l 169 0 l 119 0 l 344 972 l 668 972 q 869 771 869 972 q 780 475 869 594 q 524 356 690 356 m 535 403 q 745 510 674 403 q 817 771 817 617 q 779 887 817 849 q 657 925 742 925 l 383 925 l 263 403 l 535 403 z "},"Q":{"ha":883,"x_min":169,"x_max":936,"o":"m 463 -12 q 236 52 303 -12 q 169 283 169 117 q 228 615 169 449 q 396 883 288 782 q 648 985 504 985 q 864 915 792 985 q 936 699 936 846 q 876 342 936 513 q 629 26 797 115 l 696 -178 l 649 -193 l 583 7 q 463 -12 525 -12 m 221 272 q 276 88 221 142 q 449 33 331 33 q 651 96 567 33 q 824 352 764 181 q 883 700 883 524 q 825 881 883 824 q 658 939 767 939 q 467 879 549 939 q 286 618 351 794 q 221 272 221 442 z "},"R":{"ha":789,"x_min":119,"x_max":874,"o":"m 653 972 q 819 924 764 972 q 874 778 874 876 q 847 610 874 679 q 778 500 821 540 q 604 406 697 424 l 728 0 l 678 0 l 556 400 l 263 400 l 169 0 l 119 0 l 344 972 l 653 972 m 821 765 q 778 890 821 854 q 642 926 736 926 l 383 926 l 272 446 l 532 446 q 742 533 663 446 q 821 765 821 621 z "},"S":{"ha":697,"x_min":83,"x_max":824,"o":"m 576 939 q 366 874 442 939 q 290 683 290 810 q 333 588 290 617 q 488 526 375 560 q 646 453 600 493 q 692 324 692 413 q 601 78 692 169 q 356 -12 510 -12 q 125 6 238 -12 l 83 11 l 93 57 q 375 33 257 33 q 566 112 493 33 q 639 322 639 190 q 604 422 639 392 q 458 483 569 451 q 292 554 346 514 q 239 683 239 594 q 333 908 239 831 q 586 985 426 985 q 789 963 678 985 l 824 956 l 815 914 q 576 939 674 939 z "},"T":{"ha":663,"x_min":228,"x_max":869,"o":"m 228 926 l 239 972 l 869 972 l 858 926 l 568 926 l 354 0 l 304 0 l 518 926 l 228 926 z "},"U":{"ha":824,"x_min":165,"x_max":935,"o":"m 215 181 q 435 35 215 35 q 628 94 560 35 q 724 275 696 153 l 885 972 l 935 972 l 774 274 q 660 58 740 129 q 444 -12 581 -12 q 165 179 165 -12 q 179 288 165 232 l 338 972 l 388 972 l 229 288 q 215 181 215 229 z "},"V":{"ha":747,"x_min":263,"x_max":922,"o":"m 872 972 l 922 972 l 444 0 l 294 0 l 263 972 l 313 972 l 340 46 l 415 46 l 872 972 z "},"W":{"ha":1118,"x_min":238,"x_max":1285,"o":"m 271 972 l 321 972 l 286 46 l 335 46 l 749 958 l 801 958 l 789 46 l 835 46 l 1235 972 l 1285 972 l 865 0 l 742 0 l 756 863 l 364 0 l 238 0 l 271 972 z "},"X":{"ha":707,"x_min":28,"x_max":904,"o":"m 315 972 l 476 526 l 843 972 l 904 972 l 496 478 l 669 0 l 619 0 l 458 439 l 89 0 l 28 0 l 438 486 l 265 972 l 315 972 z "},"Y":{"ha":674,"x_min":247,"x_max":871,"o":"m 871 972 l 453 418 l 356 0 l 306 0 l 404 428 l 247 972 l 297 972 l 440 471 l 815 972 l 871 972 z "},"Z":{"ha":692,"x_min":54,"x_max":860,"o":"m 272 926 l 283 972 l 860 972 l 835 864 l 124 81 l 115 46 l 642 46 l 631 0 l 54 0 l 78 103 l 789 886 l 799 926 l 272 926 z "},"[":{"ha":411,"x_min":71,"x_max":594,"o":"m 354 1038 l 594 1038 l 585 992 l 392 992 l 129 -124 l 322 -124 l 310 -169 l 71 -169 l 354 1038 z "},"\\":{"ha":538,"x_min":264,"x_max":497,"o":"m 497 19 l 444 0 l 264 954 l 317 974 l 497 19 z "},"]":{"ha":411,"x_min":18,"x_max":542,"o":"m 258 -168 l 18 -168 l 28 -122 l 221 -122 l 483 993 l 290 993 l 303 1039 l 542 1039 l 258 -168 z "},"^":{"ha":778,"x_min":218,"x_max":781,"o":"m 725 449 l 493 867 l 274 449 l 218 449 l 468 917 l 518 917 l 781 449 l 725 449 z "},"_":{"ha":893,"x_min":99,"x_max":733,"o":"m 110 -110 l 733 -110 l 719 -162 l 99 -162 l 110 -110 z "},"`":{"ha":719,"x_min":422,"x_max":669,"o":"m 447 1001 l 669 869 l 644 839 l 422 967 l 447 1001 z "},"a":{"ha":669,"x_min":132,"x_max":722,"o":"m 299 -12 q 132 164 132 -12 q 171 408 132 286 q 292 619 210 531 q 479 707 374 707 q 679 686 550 707 l 722 679 l 617 226 q 582 39 601 163 l 576 1 l 531 -1 q 561 175 554 143 q 546 155 556 168 q 506 110 536 142 q 447 53 476 78 q 376 8 417 28 q 299 -12 335 -12 m 665 642 q 476 663 564 663 q 317 578 388 663 q 215 383 247 494 q 183 164 183 272 q 213 66 183 99 q 308 33 242 33 q 513 175 383 33 q 558 231 542 207 l 575 253 l 665 642 z "},"b":{"ha":668,"x_min":106,"x_max":696,"o":"m 525 707 q 660 656 625 707 q 696 504 696 606 q 649 264 696 394 q 584 131 622 192 q 484 28 546 69 q 347 -12 422 -12 q 146 8 267 -12 l 106 15 l 336 1014 l 385 1014 l 283 578 q 326 616 292 588 q 386 661 360 644 q 525 707 457 707 m 163 53 q 353 32 282 32 q 488 90 425 32 q 581 231 550 149 q 644 492 644 399 q 619 623 644 585 q 511 661 593 661 q 403 624 464 661 q 306 547 343 586 l 268 510 l 163 53 z "},"c":{"ha":560,"x_min":138,"x_max":656,"o":"m 504 707 q 633 696 571 707 l 656 692 l 643 649 q 504 663 564 663 q 326 592 400 663 q 189 183 189 457 q 228 70 189 108 q 357 32 268 32 q 489 51 408 32 l 517 58 l 517 14 q 346 -12 424 -12 q 138 179 138 -12 q 299 628 138 482 q 504 707 385 707 z "},"d":{"ha":668,"x_min":132,"x_max":800,"o":"m 290 -12 q 132 163 132 -12 q 172 410 132 288 q 292 619 211 532 q 476 707 374 707 q 647 690 564 707 l 675 685 l 751 1014 l 800 1014 l 565 0 l 518 0 l 554 158 q 540 140 549 151 q 501 99 531 128 q 443 47 472 69 q 372 6 414 25 q 290 -12 329 -12 m 665 642 q 478 663 568 663 q 317 578 388 663 q 215 383 247 494 q 183 163 183 271 q 304 32 183 32 q 378 53 338 32 q 451 106 418 75 q 556 217 519 168 l 572 239 l 665 642 z "},"e":{"ha":628,"x_min":135,"x_max":686,"o":"m 186 190 q 186 153 186 190 q 227 76 186 117 q 328 35 268 35 q 535 65 431 35 l 568 75 l 568 29 q 329 -12 449 -12 q 188 38 240 -12 q 135 181 135 89 q 158 363 135 272 q 224 531 181 453 q 341 658 268 610 q 506 707 414 707 q 686 564 686 707 q 590 397 686 446 q 294 347 494 347 l 207 347 q 186 190 186 264 m 307 392 q 557 428 478 392 q 636 564 636 465 q 504 663 636 663 q 217 392 301 663 l 307 392 z "},"f":{"ha":413,"x_min":51,"x_max":636,"o":"m 529 1026 q 619 1018 569 1026 l 636 1015 l 625 972 q 510 982 567 982 q 417 935 453 982 q 353 774 382 889 l 333 694 l 547 694 l 535 650 l 325 650 l 174 0 l 92 -319 l 51 -319 l 275 650 l 186 650 l 197 694 l 285 694 l 304 776 q 389 970 338 914 q 529 1026 440 1026 z "},"g":{"ha":636,"x_min":33,"x_max":774,"o":"m 457 707 q 567 686 525 707 l 774 694 l 763 646 l 610 646 q 644 545 644 601 q 628 441 644 489 q 578 349 611 393 q 485 276 544 304 q 350 247 425 247 l 314 250 q 257 131 257 176 q 283 92 257 103 q 409 69 308 81 q 556 23 510 58 q 601 -86 601 -12 q 503 -258 601 -183 q 246 -332 404 -332 q 91 -282 149 -332 q 33 -156 33 -232 q 226 74 33 -31 q 208 121 208 89 q 226 187 208 153 q 261 242 244 221 l 279 261 q 182 422 182 300 q 256 616 182 525 q 457 707 331 707 m 263 47 q 137 -40 189 11 q 85 -151 85 -92 q 129 -249 85 -210 q 257 -287 174 -287 q 464 -230 378 -287 q 550 -86 550 -172 q 515 -9 550 -32 q 389 23 479 14 q 263 47 299 32 m 361 292 q 468 316 421 292 q 542 378 515 340 q 594 522 594 450 q 562 628 594 593 q 451 663 529 663 q 292 585 351 663 q 232 425 232 507 q 361 292 232 292 z "},"h":{"ha":679,"x_min":103,"x_max":693,"o":"m 275 535 q 533 707 413 707 q 651 664 608 707 q 693 547 693 621 q 665 357 693 474 l 582 0 l 535 0 l 618 358 q 644 533 644 467 q 525 661 644 661 q 450 640 490 661 q 378 589 410 619 q 272 476 314 529 l 257 456 l 151 0 l 103 0 l 338 1014 l 386 1014 l 275 535 z "},"i":{"ha":253,"x_min":101,"x_max":375,"o":"m 101 0 l 263 694 l 311 694 l 150 0 l 101 0 m 306 886 l 325 969 l 375 969 l 356 886 l 306 886 z "},"j":{"ha":253,"x_min":-137,"x_max":376,"o":"m 101 0 l 263 694 l 311 694 l 150 0 q 71 -210 113 -160 q -121 -332 29 -261 l -137 -290 q 35 -178 -1 -222 q 101 0 71 -135 m 310 892 l 328 972 l 376 972 l 358 892 l 310 892 z "},"k":{"ha":599,"x_min":103,"x_max":728,"o":"m 151 0 l 103 0 l 338 1014 l 386 1014 l 246 407 l 363 407 l 664 694 l 728 694 l 400 381 l 557 0 l 503 0 l 351 363 l 235 363 l 151 0 z "},"l":{"ha":271,"x_min":111,"x_max":394,"o":"m 111 0 l 346 1014 l 394 1014 l 160 0 l 111 0 z "},"m":{"ha":1075,"x_min":101,"x_max":1089,"o":"m 275 538 q 532 707 411 707 q 606 692 575 707 q 653 657 638 678 q 686 581 683 613 l 688 567 q 724 606 701 582 q 811 668 747 629 q 940 707 875 707 q 1047 664 1004 707 q 1089 551 1089 621 q 1061 357 1089 481 l 978 0 l 929 0 l 1013 358 q 1039 532 1039 467 q 1007 629 1039 597 q 923 661 975 661 q 813 622 871 661 q 722 544 756 583 l 689 507 q 664 357 688 454 l 581 0 l 532 0 l 615 358 q 642 533 642 467 q 610 630 642 599 q 534 661 579 661 q 449 640 489 661 q 375 589 408 619 q 272 479 307 526 l 257 458 l 150 0 l 101 0 l 263 694 l 311 694 l 275 538 z "},"n":{"ha":678,"x_min":101,"x_max":692,"o":"m 275 538 q 532 707 411 707 q 649 664 607 707 q 692 549 692 621 q 665 361 692 478 l 581 0 l 533 0 l 617 358 q 643 533 643 467 q 524 661 643 661 q 449 640 489 661 q 375 589 408 619 q 272 479 307 526 l 257 458 l 150 0 l 101 0 l 263 694 l 311 694 l 275 538 z "},"o":{"ha":685,"x_min":138,"x_max":704,"o":"m 485 707 q 704 489 704 707 q 606 131 704 275 q 350 -12 507 -12 q 138 193 138 -12 q 238 558 138 410 q 485 707 338 707 m 350 32 q 569 165 485 32 q 654 489 654 297 q 612 615 654 568 q 485 663 569 663 q 272 524 356 663 q 188 193 188 386 q 350 32 188 32 z "},"p":{"ha":667,"x_min":28,"x_max":696,"o":"m 529 707 q 696 524 696 707 q 658 287 696 407 q 538 77 619 167 q 351 -12 456 -12 q 181 6 260 -12 l 153 11 l 76 -319 l 28 -319 l 263 694 l 310 694 l 274 536 q 288 555 279 543 q 326 596 297 567 q 383 647 354 625 q 452 688 411 669 q 529 707 493 707 m 644 524 q 528 661 644 661 q 403 610 469 661 q 297 507 338 558 l 256 456 l 163 54 q 340 32 260 32 q 478 82 419 32 q 571 208 536 132 q 644 524 644 371 z "},"q":{"ha":665,"x_min":131,"x_max":721,"o":"m 551 157 q 296 -12 415 -12 q 131 167 131 -12 q 219 519 131 347 q 328 654 261 601 q 475 707 396 707 q 681 686 560 707 l 721 679 l 493 -306 l 446 -306 l 551 157 m 664 642 q 478 663 569 663 q 317 579 388 663 q 215 385 247 496 q 182 188 182 275 q 212 67 182 100 q 308 33 242 33 q 379 54 340 33 q 450 106 418 75 q 556 217 518 168 l 571 238 l 664 642 z "},"r":{"ha":422,"x_min":101,"x_max":561,"o":"m 101 0 l 264 694 l 311 694 l 288 589 q 561 708 426 676 l 550 660 q 322 564 461 638 l 276 540 l 151 0 l 101 0 z "},"s":{"ha":593,"x_min":75,"x_max":665,"o":"m 653 644 q 440 663 529 663 q 293 610 350 663 q 236 483 236 557 q 265 422 236 442 q 392 380 294 401 q 533 330 490 358 q 576 233 576 301 q 492 51 576 115 q 282 -12 408 -12 q 107 4 203 -12 l 75 10 l 85 54 q 300 32 210 32 q 458 81 390 32 q 526 224 526 129 q 494 296 526 276 q 364 337 461 315 q 226 385 267 358 q 186 475 186 413 q 260 640 186 574 q 450 707 333 707 q 631 692 526 707 l 665 688 l 653 644 z "},"t":{"ha":432,"x_min":169,"x_max":572,"o":"m 221 114 q 310 32 221 32 l 426 42 l 424 -1 q 303 -12 353 -12 q 169 107 169 -12 q 193 253 169 158 l 286 650 l 185 650 l 196 694 l 299 694 l 353 919 l 401 919 l 346 694 l 572 694 l 561 650 l 335 650 l 242 253 q 221 114 221 164 z "},"u":{"ha":678,"x_min":146,"x_max":736,"o":"m 563 157 q 306 -12 426 -12 q 189 31 232 -12 q 146 145 146 74 q 172 333 146 217 l 257 694 l 304 694 l 221 336 q 194 163 194 228 q 226 65 194 97 q 303 33 258 33 q 389 54 349 33 q 461 106 429 75 q 565 215 531 168 l 581 236 l 688 694 l 736 694 l 575 0 l 526 0 l 563 157 z "},"v":{"ha":622,"x_min":204,"x_max":739,"o":"m 204 694 l 254 694 l 286 44 l 342 44 l 686 694 l 739 694 l 369 0 l 239 0 l 204 694 z "},"w":{"ha":986,"x_min":208,"x_max":1096,"o":"m 208 694 l 257 694 l 265 44 l 288 44 l 615 681 l 678 681 l 706 44 l 729 44 l 1044 694 l 1096 694 l 760 0 l 657 0 l 633 621 l 318 0 l 218 0 l 208 694 z "},"x":{"ha":571,"x_min":38,"x_max":697,"o":"m 201 694 l 254 694 l 374 379 l 638 694 l 697 694 l 397 343 l 528 0 l 474 0 l 358 310 l 97 0 l 38 0 l 333 347 l 201 694 z "},"y":{"ha":622,"x_min":149,"x_max":739,"o":"m 204 694 l 254 694 l 286 44 l 342 44 l 686 694 l 739 694 l 201 -317 l 149 -317 l 319 0 l 239 0 l 204 694 z "},"z":{"ha":583,"x_min":57,"x_max":688,"o":"m 206 650 l 217 694 l 688 694 l 681 650 l 125 44 l 538 44 l 528 0 l 57 0 l 61 44 l 617 650 l 206 650 z "},"{":{"ha":457,"x_min":133,"x_max":642,"o":"m 288 311 q 253 165 288 286 q 218 -6 218 43 q 369 -121 218 -121 l 356 -171 q 214 -130 258 -167 q 169 -31 169 -93 q 204 153 169 32 q 239 296 239 275 q 214 367 239 343 q 133 406 189 392 l 144 454 q 272 518 236 479 q 324 640 307 557 q 335 700 328 660 q 363 828 349 785 q 461 985 397 935 q 642 1040 525 1035 l 633 990 q 471 937 524 985 q 397 789 418 889 q 383 710 393 767 q 368 629 374 653 q 312 498 349 539 q 199 432 275 457 q 288 311 288 400 z "},"|":{"ha":411,"x_min":261,"x_max":310,"o":"m 261 -319 l 261 1014 l 310 1014 l 310 -319 l 261 -319 z "},"}":{"ha":457,"x_min":15,"x_max":524,"o":"m 369 554 q 404 701 369 579 q 439 871 439 822 q 288 986 439 986 l 301 1036 q 443 995 399 1032 q 488 896 488 958 q 453 712 488 833 q 418 569 418 590 q 443 498 418 522 q 524 460 468 474 l 513 411 q 385 347 421 386 q 333 225 350 308 q 322 164 329 206 q 294 38 308 81 q 196 -119 260 -69 q 15 -175 132 -169 l 24 -125 q 186 -72 133 -119 q 260 76 239 -24 q 274 156 264 99 q 289 236 283 213 q 345 367 308 326 q 458 433 382 408 q 369 554 369 465 z "},"~":{"ha":778,"x_min":182,"x_max":768,"o":"m 613 294 q 469 345 571 294 q 342 396 367 396 q 281 378 317 396 q 222 342 246 360 l 197 324 l 182 368 q 338 443 268 443 q 481 392 379 443 q 608 342 583 342 q 669 360 633 342 q 728 396 704 378 l 753 414 l 768 371 q 613 294 682 294 z "}," ":{"ha":306,"x_min":0,"x_max":0,"o":""},"¡":{"ha":263,"x_min":44,"x_max":311,"o":"m 247 401 l 90 -278 l 44 -278 l 208 401 l 247 401 m 311 694 l 285 579 l 235 579 l 261 694 l 311 694 z "},"¢":{"ha":778,"x_min":225,"x_max":735,"o":"m 225 222 q 243 343 225 275 q 357 560 281 486 q 540 638 433 635 l 583 819 l 629 819 l 586 639 l 735 625 l 721 576 q 547 590 597 590 q 388 524 453 590 q 296 343 324 458 q 278 213 278 257 q 314 138 278 169 q 433 106 350 106 l 619 117 l 607 69 q 451 60 529 60 l 410 -117 l 363 -117 l 404 57 q 225 222 225 57 z "},"£":{"ha":778,"x_min":115,"x_max":828,"o":"m 818 886 q 661 897 715 897 q 582 890 607 897 q 538 864 557 883 q 508 828 519 844 q 483 775 496 813 q 447 644 469 733 l 428 564 l 732 564 l 721 518 l 417 518 l 311 46 l 546 46 l 658 68 l 658 25 l 546 0 l 115 0 l 126 46 l 260 46 l 367 518 l 267 518 l 278 564 l 378 564 l 397 650 q 431 771 415 726 q 472 860 446 815 q 650 943 524 943 q 800 932 726 943 l 828 928 l 818 886 z "},"¤":{"ha":778,"x_min":186,"x_max":750,"o":"m 617 167 q 469 114 553 114 q 319 167 385 114 l 222 68 l 186 104 l 285 201 q 232 349 232 265 q 285 499 232 433 l 186 596 l 222 632 l 319 533 q 468 586 383 586 q 617 533 553 586 l 714 632 l 750 596 l 651 499 q 704 349 704 433 q 651 201 704 265 l 750 104 l 714 68 l 617 167 m 336 218 q 468 165 390 165 q 600 218 546 165 q 653 350 653 272 q 600 482 653 428 q 468 535 546 535 q 336 482 390 535 q 283 350 283 428 q 336 218 283 272 z "},"¥":{"ha":778,"x_min":150,"x_max":928,"o":"m 199 461 l 210 507 l 435 507 l 271 918 l 324 918 l 494 486 l 864 918 l 928 918 l 572 507 l 790 507 l 781 461 l 533 461 l 510 433 l 479 300 l 743 300 l 732 254 l 468 254 l 408 0 l 360 0 l 418 254 l 150 254 l 161 300 l 428 300 l 460 436 l 453 461 l 199 461 z "},"¦":{"ha":425,"x_min":268,"x_max":317,"o":"m 268 1014 l 317 1014 l 317 492 l 268 492 l 268 1014 m 268 203 l 317 203 l 317 -319 l 268 -319 l 268 203 z "},"§":{"ha":638,"x_min":63,"x_max":739,"o":"m 528 865 q 365 810 421 865 q 308 661 308 754 q 340 585 308 604 q 461 550 371 565 q 643 410 643 521 q 617 306 643 364 q 567 214 592 249 l 542 179 q 565 109 565 151 q 551 26 565 67 q 506 -61 536 -15 q 417 -138 476 -107 q 279 -169 357 -169 q 100 -156 199 -169 l 63 -151 l 78 -101 q 290 -121 219 -121 q 451 -51 392 -121 q 511 92 511 18 q 481 158 511 138 q 350 192 450 178 q 208 243 250 206 q 165 336 165 281 q 194 447 165 392 q 250 531 222 501 l 279 560 q 251 658 251 600 q 328 840 251 764 q 539 915 404 915 q 707 901 600 915 l 739 897 l 725 847 q 528 865 590 865 m 285 508 q 277 499 285 508 q 243 443 269 490 q 217 352 217 396 q 251 281 217 308 q 376 241 285 254 q 508 204 468 228 q 594 397 594 319 q 560 462 594 438 q 429 502 525 486 q 313 536 333 518 q 285 508 301 525 z "},"¨":{"ha":1099,"x_min":361,"x_max":663,"o":"m 361 879 l 382 969 l 422 969 l 401 879 l 361 879 m 604 879 l 622 969 l 663 969 l 642 879 l 604 879 z "},"©":{"ha":897,"x_min":233,"x_max":943,"o":"m 335 342 q 284 395 335 342 q 233 603 233 449 q 335 865 233 757 q 588 972 436 972 q 841 865 739 972 q 943 603 943 757 q 841 342 943 449 q 588 235 739 235 q 335 342 436 235 m 366 833 q 322 786 366 833 q 278 603 278 739 q 366 373 278 467 q 588 279 454 279 q 810 373 721 279 q 899 603 899 467 q 810 833 899 739 q 588 928 721 928 q 366 833 454 928 m 588 390 q 469 444 501 390 q 436 602 436 497 q 468 761 436 707 q 588 815 500 815 q 676 808 642 815 l 690 806 l 689 761 q 588 771 632 771 q 500 732 519 771 q 481 604 481 693 q 503 475 481 515 q 588 435 525 435 l 689 446 l 690 401 q 588 390 631 390 z "},"ª":{"ha":492,"x_min":222,"x_max":558,"o":"m 299 536 q 236 567 256 536 q 224 607 224 586 q 228 647 224 628 q 270 724 240 699 q 357 753 300 749 l 499 763 l 507 794 q 511 831 511 814 q 502 860 511 847 q 456 874 493 874 l 310 864 l 315 904 q 469 915 414 915 q 558 842 558 915 q 551 793 558 821 l 507 603 q 550 574 515 581 l 539 536 q 471 567 496 538 q 299 536 376 536 m 271 618 q 314 579 271 579 q 439 597 369 579 l 461 604 l 489 722 l 357 714 q 275 644 290 710 q 271 618 271 629 z "},"«":{"ha":586,"x_min":136,"x_max":618,"o":"m 618 543 l 601 486 l 401 346 l 532 193 l 517 144 l 344 335 l 356 365 l 618 543 m 410 543 l 393 486 l 193 346 l 324 193 l 308 144 l 136 335 l 147 365 l 410 543 z "},"¬":{"ha":778,"x_min":181,"x_max":767,"o":"m 181 461 l 767 461 l 767 175 l 717 175 l 717 414 l 181 414 l 181 461 z "},"®":{"ha":897,"x_min":233,"x_max":943,"o":"m 335 342 q 284 395 335 342 q 233 603 233 449 q 335 865 233 757 q 588 972 436 972 q 841 865 739 972 q 943 603 943 757 q 841 342 943 449 q 588 235 739 235 q 335 342 436 235 m 366 833 q 322 786 366 833 q 278 603 278 739 q 366 373 278 467 q 588 279 454 279 q 810 373 721 279 q 899 603 899 467 q 810 833 899 739 q 588 928 721 928 q 366 833 454 928 m 490 558 l 490 397 l 446 397 l 446 807 l 575 807 q 694 779 657 807 q 732 683 732 751 q 650 563 732 583 l 740 397 l 690 397 l 603 558 l 490 558 m 490 764 l 490 601 l 601 601 q 668 619 649 601 q 688 683 688 638 q 661 747 688 729 q 576 764 635 764 l 490 764 z "},"¯":{"ha":589,"x_min":329,"x_max":689,"o":"m 329 899 l 338 935 l 689 935 l 679 899 l 329 899 z "},"°":{"ha":778,"x_min":382,"x_max":760,"o":"m 434 660 q 408 685 434 660 q 382 796 382 711 q 434 933 382 881 q 571 985 486 985 q 708 933 656 985 q 760 796 760 881 q 708 660 760 711 q 571 608 656 608 q 434 660 486 608 m 468 901 q 449 881 468 901 q 429 796 429 861 q 468 692 429 731 q 572 653 507 653 q 676 692 636 653 q 715 797 715 732 q 676 901 715 861 q 572 940 636 940 q 468 901 507 940 z "},"±":{"ha":778,"x_min":146,"x_max":760,"o":"m 146 428 l 146 475 l 426 475 l 426 667 l 476 667 l 476 475 l 760 475 l 760 428 l 476 428 l 476 228 l 426 228 l 426 428 l 146 428 m 146 117 l 760 117 l 760 69 l 146 69 l 146 117 z "},"²":{"ha":389,"x_min":204,"x_max":553,"o":"m 500 1015 q 435 1063 500 1063 q 328 1050 392 1063 l 306 1046 l 314 1092 q 449 1110 390 1110 q 553 1032 553 1110 q 504 908 553 965 q 414 824 472 872 l 281 711 l 486 711 l 475 664 l 204 664 l 215 711 l 388 856 q 500 1015 500 949 z "},"³":{"ha":389,"x_min":201,"x_max":565,"o":"m 465 890 q 525 826 525 871 q 518 781 525 808 q 346 651 486 651 q 222 663 278 651 l 201 667 l 217 711 q 358 699 289 699 q 465 779 446 699 q 469 811 469 797 q 404 864 469 864 l 314 864 l 325 911 l 415 911 q 469 938 440 911 q 511 1019 511 974 q 499 1050 511 1038 q 451 1063 488 1063 q 328 1053 397 1063 l 307 1050 l 314 1094 q 457 1110 392 1110 q 544 1088 522 1110 q 565 1043 565 1067 q 560 999 565 1019 q 465 890 539 919 z "},"´":{"ha":746,"x_min":404,"x_max":694,"o":"m 411 847 l 404 882 l 686 1014 l 694 972 l 411 847 z "},"µ":{"ha":778,"x_min":74,"x_max":789,"o":"m 615 157 q 365 -12 479 -12 q 213 72 250 -12 l 122 -319 l 74 -319 l 217 300 l 233 368 l 310 694 l 357 694 l 282 375 l 283 375 l 261 279 q 247 153 247 210 q 279 65 247 97 q 356 33 311 33 q 442 54 401 33 q 514 106 482 75 q 618 215 583 168 l 633 236 l 740 694 l 789 694 l 628 0 l 579 0 l 615 157 z "},"¶":{"ha":765,"x_min":207,"x_max":943,"o":"m 207 668 q 297 876 207 779 q 514 972 386 972 l 943 972 l 933 922 l 806 922 l 586 0 l 539 0 l 758 922 l 560 922 l 339 0 l 292 0 l 410 485 q 258 538 308 486 q 207 668 207 590 z "},"·":{"ha":253,"x_min":186,"x_max":264,"o":"m 186 375 l 211 490 l 264 490 l 239 375 l 186 375 z "},"¸":{"ha":1099,"x_min":453,"x_max":694,"o":"m 583 -74 q 693 -146 693 -74 q 690 -172 693 -158 q 558 -276 667 -276 l 453 -271 l 464 -228 q 565 -233 521 -233 q 643 -172 628 -233 q 646 -153 646 -162 q 594 -115 646 -115 l 524 -115 l 553 7 l 597 7 l 576 -74 l 583 -74 z "},"¹":{"ha":389,"x_min":293,"x_max":503,"o":"m 293 1004 l 453 1097 l 503 1097 l 396 664 l 346 664 l 440 1043 l 307 965 l 293 1004 z "},"º":{"ha":471,"x_min":238,"x_max":564,"o":"m 446 914 q 564 806 564 914 q 553 715 564 767 q 357 532 513 532 q 238 647 238 532 q 247 725 238 685 q 319 870 272 826 q 446 914 365 914 m 367 582 q 456 615 424 582 q 506 725 488 647 q 514 797 514 760 q 496 849 514 833 q 428 864 478 864 q 347 833 379 864 q 296 725 314 801 q 286 656 286 686 q 367 582 286 582 z "},"»":{"ha":672,"x_min":128,"x_max":696,"o":"m 422 144 l 439 201 l 639 342 l 508 494 l 524 543 l 696 353 l 685 322 l 422 144 m 128 144 l 144 201 l 344 342 l 214 494 l 229 543 l 401 353 l 390 322 l 128 144 z "},"¼":{"ha":788,"x_min":156,"x_max":792,"o":"m 265 1004 l 425 1097 l 475 1097 l 368 664 l 318 664 l 413 1043 l 279 965 l 265 1004 m 201 -1 l 156 17 l 746 972 l 792 953 l 201 -1 m 643 0 l 663 79 l 460 79 l 471 124 l 671 433 l 726 433 l 529 126 l 674 126 l 704 247 l 754 247 l 724 126 l 775 126 l 764 79 l 713 79 l 693 0 l 643 0 z "},"½":{"ha":829,"x_min":156,"x_max":849,"o":"m 265 1004 l 425 1097 l 475 1097 l 368 664 l 318 664 l 413 1043 l 279 965 l 265 1004 m 201 -1 l 156 17 l 746 972 l 792 953 l 201 -1 m 796 350 q 731 399 796 399 q 622 386 688 399 l 601 382 l 610 428 q 744 446 686 446 q 849 368 849 446 q 800 244 849 301 q 710 160 768 208 l 576 47 l 782 47 l 771 0 l 500 0 l 511 47 l 683 192 q 796 350 796 285 z "},"¾":{"ha":825,"x_min":196,"x_max":832,"o":"m 242 -1 l 196 17 l 786 972 l 832 953 l 242 -1 m 475 890 q 535 826 535 871 q 528 781 535 808 q 356 651 496 651 q 232 663 288 651 l 211 667 l 226 711 q 368 699 299 699 q 475 779 456 699 q 479 811 479 797 q 414 864 479 864 l 324 864 l 335 911 l 425 911 q 481 938 450 911 q 521 1019 521 974 q 509 1050 521 1038 q 461 1063 497 1063 q 336 1053 407 1063 l 317 1050 l 324 1094 q 467 1110 401 1110 q 553 1088 532 1110 q 575 1043 575 1067 q 569 999 575 1019 q 475 890 549 922 m 683 0 l 703 79 l 500 79 l 511 124 l 711 433 l 767 433 l 569 126 l 714 126 l 744 247 l 794 247 l 764 126 l 815 126 l 804 79 l 753 79 l 733 0 l 683 0 z "},"¿":{"ha":543,"x_min":29,"x_max":497,"o":"m 237 -289 q 191 -289 237 -289 q 87 -251 144 -289 q 29 -135 29 -212 q 53 -8 29 -58 q 119 85 76 43 q 269 215 163 128 q 392 381 376 303 l 403 435 l 450 435 q 442 375 447 404 q 293 174 422 278 q 123 13 164 69 q 82 -131 82 -43 q 249 -242 82 -242 q 417 -219 314 -242 l 450 -211 l 450 -256 q 237 -289 329 -289 m 497 694 l 474 581 l 422 581 l 447 694 l 497 694 z "},"À":{"ha":772,"x_min":44,"x_max":736,"o":"m 486 1274 l 708 1139 l 688 1108 l 463 1236 l 486 1274 m 44 0 l 560 972 l 683 972 l 736 0 l 686 0 l 669 300 l 254 300 l 96 0 l 44 0 m 588 926 l 279 344 l 667 344 l 638 926 l 588 926 z "},"Á":{"ha":772,"x_min":44,"x_max":856,"o":"m 571 1108 l 560 1143 l 843 1276 l 856 1236 l 571 1108 m 44 0 l 560 972 l 683 972 l 736 0 l 686 0 l 669 300 l 254 300 l 96 0 l 44 0 m 588 926 l 279 344 l 667 344 l 638 926 l 588 926 z "},"Â":{"ha":772,"x_min":44,"x_max":821,"o":"m 450 1115 l 667 1293 l 686 1293 l 821 1115 l 774 1115 l 672 1250 l 507 1115 l 450 1115 m 44 0 l 560 972 l 683 972 l 736 0 l 686 0 l 669 300 l 254 300 l 96 0 l 44 0 m 588 926 l 279 344 l 667 344 l 638 926 l 588 926 z "},"Ã":{"ha":772,"x_min":44,"x_max":874,"o":"m 874 1218 q 752 1139 786 1139 q 648 1183 718 1139 q 563 1228 578 1228 q 461 1169 538 1228 l 436 1151 l 435 1190 q 563 1269 526 1269 q 669 1226 600 1269 q 754 1182 739 1182 q 846 1235 781 1182 l 868 1253 l 874 1218 m 44 0 l 560 972 l 683 972 l 736 0 l 686 0 l 669 300 l 254 300 l 96 0 l 44 0 m 588 926 l 279 344 l 667 344 l 638 926 l 588 926 z "},"Ä":{"ha":772,"x_min":44,"x_max":815,"o":"m 504 1154 l 524 1246 l 565 1246 l 542 1154 l 504 1154 m 753 1154 l 775 1246 l 815 1246 l 793 1154 l 753 1154 m 44 0 l 560 972 l 683 972 l 736 0 l 686 0 l 669 300 l 254 300 l 96 0 l 44 0 m 588 926 l 279 344 l 667 344 l 638 926 l 588 926 z "},"Å":{"ha":772,"x_min":44,"x_max":765,"o":"m 511 1007 q 518 1049 511 1025 q 668 1172 551 1172 q 749 1142 724 1172 q 764 1097 764 1122 q 758 1049 764 1072 q 685 944 739 975 l 736 0 l 686 0 l 669 300 l 254 300 l 96 0 l 44 0 l 544 943 q 511 1007 511 964 m 638 926 l 588 926 l 279 344 l 667 344 l 638 926 m 725 1074 q 658 1132 725 1132 q 554 1049 575 1132 q 551 1022 551 1035 q 583 972 551 985 l 657 972 q 722 1049 707 989 q 725 1074 725 1063 z "},"Æ":{"ha":1107,"x_min":44,"x_max":1268,"o":"m 517 0 l 585 299 l 251 299 l 93 0 l 44 0 l 558 972 l 1268 972 l 1260 926 l 783 929 l 685 522 l 1083 522 l 1075 476 l 676 476 l 575 46 l 1049 46 l 1040 0 l 517 0 m 581 926 l 274 343 l 594 343 l 736 926 l 581 926 z "},"Ç":{"ha":708,"x_min":168,"x_max":878,"o":"m 414 -74 q 524 -146 524 -74 q 521 -172 524 -158 q 389 -276 497 -276 l 283 -271 l 294 -228 q 396 -233 351 -233 q 474 -172 458 -233 q 476 -153 476 -162 q 425 -115 476 -115 l 354 -115 l 379 -10 q 168 264 168 13 q 244 646 168 463 q 475 939 331 854 q 651 985 557 985 q 844 965 754 985 l 878 958 l 867 914 q 645 938 746 938 q 460 872 544 938 q 325 703 376 806 q 221 264 221 490 q 272 90 221 146 q 432 35 322 35 q 626 54 538 35 l 658 61 l 657 15 q 425 -12 536 -12 l 422 -12 l 407 -74 l 414 -74 z "},"È":{"ha":708,"x_min":119,"x_max":868,"o":"m 543 1274 l 765 1139 l 744 1108 l 519 1236 l 543 1274 m 119 0 l 344 972 l 868 972 l 857 926 l 383 926 l 290 522 l 686 522 l 675 476 l 279 476 l 181 46 l 654 46 l 643 0 l 119 0 z "},"É":{"ha":708,"x_min":119,"x_max":868,"o":"m 549 1108 l 538 1143 l 821 1276 l 833 1236 l 549 1108 m 119 0 l 344 972 l 868 972 l 857 926 l 383 926 l 290 522 l 686 522 l 675 476 l 279 476 l 181 46 l 654 46 l 643 0 l 119 0 z "},"Ê":{"ha":708,"x_min":119,"x_max":922,"o":"m 551 1108 l 768 1286 l 788 1286 l 922 1108 l 875 1108 l 774 1243 l 608 1108 l 551 1108 m 119 0 l 344 972 l 868 972 l 857 926 l 383 926 l 290 522 l 686 522 l 675 476 l 279 476 l 181 46 l 654 46 l 643 0 l 119 0 z "},"Ë":{"ha":708,"x_min":119,"x_max":868,"o":"m 503 1154 l 522 1246 l 564 1246 l 540 1154 l 503 1154 m 751 1154 l 774 1246 l 814 1246 l 792 1154 l 751 1154 m 119 0 l 344 972 l 868 972 l 857 926 l 383 926 l 290 522 l 686 522 l 675 476 l 279 476 l 181 46 l 654 46 l 643 0 l 119 0 z "},"Ì":{"ha":289,"x_min":119,"x_max":458,"o":"m 236 1274 l 458 1139 l 438 1108 l 213 1236 l 236 1274 m 119 0 l 344 972 l 394 972 l 169 0 l 119 0 z "},"Í":{"ha":289,"x_min":119,"x_max":625,"o":"m 340 1108 l 329 1143 l 613 1276 l 625 1236 l 340 1108 m 119 0 l 344 972 l 394 972 l 169 0 l 119 0 z "},"Î":{"ha":289,"x_min":119,"x_max":581,"o":"m 210 1108 l 426 1286 l 446 1286 l 581 1108 l 533 1108 l 432 1243 l 267 1108 l 210 1108 m 119 0 l 344 972 l 394 972 l 169 0 l 119 0 z "},"Ï":{"ha":289,"x_min":119,"x_max":565,"o":"m 254 1154 l 274 1246 l 315 1246 l 292 1154 l 254 1154 m 503 1154 l 525 1246 l 565 1246 l 543 1154 l 503 1154 m 119 0 l 344 972 l 394 972 l 169 0 l 119 0 z "},"Ð":{"ha":847,"x_min":122,"x_max":900,"o":"m 451 0 l 122 0 l 229 461 l 124 461 l 133 514 l 242 514 l 347 972 l 664 972 q 845 903 790 972 q 900 706 900 833 q 872 461 900 578 q 792 240 844 344 q 651 67 740 135 q 451 0 561 0 m 749 270 q 773 319 749 270 q 822 478 796 368 q 847 700 847 588 q 803 869 847 813 q 654 926 760 926 l 386 926 l 292 514 l 517 514 l 504 461 l 279 461 l 185 46 l 464 46 q 628 109 553 46 q 749 270 703 172 z "},"Ñ":{"ha":857,"x_min":119,"x_max":963,"o":"m 924 1215 q 802 1136 836 1136 q 698 1181 768 1136 q 613 1225 628 1225 q 511 1167 588 1225 l 486 1149 l 485 1188 q 613 1267 576 1267 q 719 1223 650 1267 q 804 1179 789 1179 q 896 1232 831 1179 l 918 1250 l 924 1215 m 119 0 l 344 972 l 457 972 l 665 46 l 699 46 l 913 972 l 963 972 l 738 0 l 628 0 l 418 926 l 383 926 l 169 0 l 119 0 z "},"Ò":{"ha":883,"x_min":169,"x_max":936,"o":"m 589 1274 l 811 1139 l 790 1108 l 565 1236 l 589 1274 m 221 272 q 276 88 221 142 q 449 33 331 33 q 651 96 567 33 q 824 352 764 181 q 883 700 883 524 q 825 881 883 824 q 658 939 767 939 q 467 879 549 939 q 286 618 351 794 q 221 272 221 442 m 936 699 q 876 342 936 513 q 707 79 817 171 q 450 -12 597 -12 q 236 52 303 -12 q 169 283 169 117 q 228 615 169 449 q 396 883 288 782 q 648 985 504 985 q 864 915 792 985 q 936 699 936 846 z "},"Ó":{"ha":883,"x_min":169,"x_max":936,"o":"m 221 272 q 276 88 221 142 q 449 33 331 33 q 651 96 567 33 q 824 352 764 181 q 883 700 883 524 q 825 881 883 824 q 658 939 767 939 q 467 879 549 939 q 286 618 351 794 q 221 272 221 442 m 936 699 q 876 342 936 513 q 707 79 817 171 q 450 -12 597 -12 q 236 52 303 -12 q 169 283 169 117 q 228 615 169 449 q 396 883 288 782 q 648 985 504 985 q 864 915 792 985 q 936 699 936 846 m 624 1108 l 613 1143 l 896 1276 l 908 1236 l 624 1108 z "},"Ô":{"ha":883,"x_min":169,"x_max":936,"o":"m 221 272 q 276 88 221 142 q 449 33 331 33 q 651 96 567 33 q 824 352 764 181 q 883 700 883 524 q 825 881 883 824 q 658 939 767 939 q 467 879 549 939 q 286 618 351 794 q 221 272 221 442 m 936 699 q 876 342 936 513 q 707 79 817 171 q 450 -12 597 -12 q 236 52 303 -12 q 169 283 169 117 q 228 615 169 449 q 396 883 288 782 q 648 985 504 985 q 864 915 792 985 q 936 699 936 846 m 517 1115 l 733 1293 l 753 1293 l 888 1115 l 840 1115 l 739 1250 l 574 1115 l 517 1115 z "},"Õ":{"ha":883,"x_min":169,"x_max":947,"o":"m 947 1215 q 826 1136 860 1136 q 722 1181 792 1136 q 636 1225 651 1225 q 535 1167 611 1225 l 510 1149 l 508 1188 q 637 1267 600 1267 q 743 1223 674 1267 q 828 1179 813 1179 q 919 1232 854 1179 l 942 1250 l 947 1215 m 221 272 q 276 88 221 142 q 449 33 331 33 q 651 96 567 33 q 824 352 764 181 q 883 700 883 524 q 825 881 883 824 q 658 939 767 939 q 467 879 549 939 q 286 618 351 794 q 221 272 221 442 m 936 699 q 876 342 936 513 q 707 79 817 171 q 450 -12 597 -12 q 236 52 303 -12 q 169 283 169 117 q 228 615 169 449 q 396 883 288 782 q 648 985 504 985 q 864 915 792 985 q 936 699 936 846 z "},"Ö":{"ha":883,"x_min":169,"x_max":936,"o":"m 561 1157 l 582 1247 l 629 1247 l 608 1157 l 561 1157 m 811 1157 l 829 1247 l 876 1247 l 856 1157 l 811 1157 m 221 272 q 276 88 221 142 q 449 33 331 33 q 651 96 567 33 q 824 352 764 181 q 883 700 883 524 q 825 881 883 824 q 658 939 767 939 q 467 879 549 939 q 286 618 351 794 q 221 272 221 442 m 936 699 q 876 342 936 513 q 707 79 817 171 q 450 -12 597 -12 q 236 52 303 -12 q 169 283 169 117 q 228 615 169 449 q 396 883 288 782 q 648 985 504 985 q 864 915 792 985 q 936 699 936 846 z "},"×":{"ha":778,"x_min":192,"x_max":744,"o":"m 225 625 l 468 381 l 711 625 l 744 592 l 500 349 l 744 106 l 711 72 l 468 317 l 225 72 l 192 106 l 436 349 l 192 592 l 225 625 z "},"Ø":{"ha":883,"x_min":110,"x_max":989,"o":"m 235 53 q 169 283 169 118 q 228 615 169 449 q 396 883 288 782 q 635 985 504 985 q 836 936 767 985 l 947 1099 l 989 1079 l 871 907 q 936 699 936 835 q 876 342 936 513 q 707 79 817 171 q 467 -12 597 -12 q 269 26 338 -12 l 147 -153 l 110 -131 l 235 53 m 808 894 q 649 939 749 939 q 467 879 549 939 q 286 618 351 794 q 221 272 221 442 q 265 99 221 156 l 808 894 m 299 69 q 460 33 354 33 q 651 96 567 33 q 824 352 764 181 q 883 700 883 524 q 840 863 883 806 l 568 461 l 299 69 z "},"Ù":{"ha":824,"x_min":165,"x_max":935,"o":"m 549 1274 l 771 1139 l 750 1108 l 525 1236 l 549 1274 m 215 181 q 435 35 215 35 q 628 94 560 35 q 724 275 696 153 l 885 972 l 935 972 l 774 274 q 660 58 740 129 q 444 -12 581 -12 q 165 179 165 -12 q 179 288 165 232 l 338 972 l 388 972 l 229 288 q 215 181 215 229 z "},"Ú":{"ha":824,"x_min":165,"x_max":935,"o":"m 215 181 q 435 35 215 35 q 628 94 560 35 q 724 275 696 153 l 885 972 l 935 972 l 774 274 q 660 58 740 129 q 444 -12 581 -12 q 165 179 165 -12 q 179 288 165 232 l 338 972 l 388 972 l 229 288 q 215 181 215 229 m 558 1108 l 547 1143 l 831 1276 l 843 1236 l 558 1108 z "},"Û":{"ha":824,"x_min":165,"x_max":935,"o":"m 215 181 q 435 35 215 35 q 628 94 560 35 q 724 275 696 153 l 885 972 l 935 972 l 774 274 q 660 58 740 129 q 444 -12 581 -12 q 165 179 165 -12 q 179 288 165 232 l 338 972 l 388 972 l 229 288 q 215 181 215 229 m 472 1115 l 689 1293 l 708 1293 l 843 1115 l 796 1115 l 694 1250 l 529 1115 l 472 1115 z "},"Ü":{"ha":824,"x_min":165,"x_max":935,"o":"m 515 1157 l 536 1247 l 583 1247 l 563 1157 l 515 1157 m 765 1157 l 783 1247 l 831 1247 l 810 1157 l 765 1157 m 215 181 q 435 35 215 35 q 628 94 560 35 q 724 275 696 153 l 885 972 l 935 972 l 774 274 q 660 58 740 129 q 444 -12 581 -12 q 165 179 165 -12 q 179 288 165 232 l 338 972 l 388 972 l 229 288 q 215 181 215 229 z "},"Ý":{"ha":674,"x_min":247,"x_max":871,"o":"m 478 1108 l 467 1143 l 750 1276 l 763 1236 l 478 1108 m 871 972 l 453 418 l 356 0 l 306 0 l 404 428 l 247 972 l 297 972 l 440 471 l 815 972 l 871 972 z "},"Þ":{"ha":772,"x_min":118,"x_max":842,"o":"m 501 231 q 778 510 707 231 q 792 607 792 564 q 617 760 792 760 l 347 760 l 222 231 l 501 231 m 490 186 l 211 186 l 168 0 l 118 0 l 346 972 l 396 972 l 357 804 l 628 804 q 842 613 842 804 q 829 510 842 567 q 712 274 797 363 q 490 186 626 186 z "},"ß":{"ha":725,"x_min":101,"x_max":756,"o":"m 560 1026 q 756 882 756 1026 q 719 747 756 799 q 618 662 682 696 q 531 608 554 628 q 508 561 508 589 q 524 515 508 533 q 607 456 539 497 q 701 382 675 414 q 728 282 728 350 q 645 67 728 147 q 413 -12 563 -12 q 292 3 358 -12 l 269 7 l 276 51 q 418 32 364 32 q 608 99 539 32 q 678 281 678 167 q 655 358 678 331 q 567 426 632 386 q 481 494 501 467 q 460 560 460 521 q 487 628 460 600 q 597 701 514 657 q 706 875 706 760 q 672 956 706 931 q 546 982 638 982 q 403 927 454 982 q 321 739 351 872 l 149 0 l 101 0 l 275 743 q 376 963 311 899 q 560 1026 440 1026 z "},"à":{"ha":669,"x_min":132,"x_max":722,"o":"m 299 -12 q 132 164 132 -12 q 171 408 132 286 q 292 619 210 531 q 479 707 374 707 q 679 686 550 707 l 722 679 l 617 226 q 582 39 601 163 l 576 1 l 531 -1 q 561 175 554 143 q 546 155 556 168 q 506 110 536 142 q 447 53 476 78 q 376 8 417 28 q 299 -12 335 -12 m 665 642 q 476 663 564 663 q 317 578 388 663 q 215 383 247 494 q 183 164 183 272 q 213 66 183 99 q 308 33 242 33 q 513 175 383 33 q 558 231 542 207 l 575 253 l 665 642 m 458 1001 l 681 869 l 656 839 l 433 967 l 458 1001 z "},"á":{"ha":669,"x_min":132,"x_max":760,"o":"m 299 -12 q 132 164 132 -12 q 171 408 132 286 q 292 619 210 531 q 479 707 374 707 q 679 686 550 707 l 722 679 l 617 226 q 582 39 601 163 l 576 1 l 531 -1 q 561 175 554 143 q 546 155 556 168 q 506 110 536 142 q 447 53 476 78 q 376 8 417 28 q 299 -12 335 -12 m 665 642 q 476 663 564 663 q 317 578 388 663 q 215 383 247 494 q 183 164 183 272 q 213 66 183 99 q 308 33 242 33 q 513 175 383 33 q 558 231 542 207 l 575 253 l 665 642 m 476 847 l 469 882 l 751 1014 l 760 972 l 476 847 z "},"â":{"ha":669,"x_min":132,"x_max":722,"o":"m 361 826 l 564 1014 l 594 1014 l 715 826 l 663 826 l 574 967 l 421 826 l 361 826 m 299 -12 q 132 164 132 -12 q 171 408 132 286 q 292 619 210 531 q 479 707 374 707 q 679 686 550 707 l 722 679 l 617 226 q 582 39 601 163 l 576 1 l 531 -1 q 561 175 554 143 q 546 155 556 168 q 506 110 536 142 q 447 53 476 78 q 376 8 417 28 q 299 -12 335 -12 m 665 642 q 476 663 564 663 q 317 578 388 663 q 215 383 247 494 q 183 164 183 272 q 213 66 183 99 q 308 33 242 33 q 513 175 383 33 q 558 231 542 207 l 575 253 l 665 642 z "},"ã":{"ha":669,"x_min":132,"x_max":776,"o":"m 299 -12 q 132 164 132 -12 q 171 408 132 286 q 292 619 210 531 q 479 707 374 707 q 679 686 550 707 l 722 679 l 617 226 q 582 39 601 163 l 576 1 l 531 -1 q 561 175 554 143 q 546 155 556 168 q 506 110 536 142 q 447 53 476 78 q 376 8 417 28 q 299 -12 335 -12 m 665 642 q 476 663 564 663 q 317 578 388 663 q 215 383 247 494 q 183 164 183 272 q 213 66 183 99 q 308 33 242 33 q 513 175 383 33 q 558 231 542 207 l 575 253 l 665 642 m 667 875 q 575 910 642 875 q 494 946 508 946 q 406 899 469 946 l 385 883 l 382 926 q 504 990 463 990 q 594 955 531 990 q 672 919 658 919 q 751 961 699 919 l 769 976 l 776 935 q 667 875 707 875 z "},"ä":{"ha":669,"x_min":132,"x_max":722,"o":"m 392 879 l 413 969 l 460 969 l 439 879 l 392 879 m 642 879 l 660 969 l 707 969 l 686 879 l 642 879 m 299 -12 q 132 164 132 -12 q 171 408 132 286 q 292 619 210 531 q 479 707 374 707 q 679 686 550 707 l 722 679 l 617 226 q 582 39 601 163 l 576 1 l 531 -1 q 561 175 554 143 q 546 155 556 168 q 506 110 536 142 q 447 53 476 78 q 376 8 417 28 q 299 -12 335 -12 m 665 642 q 476 663 564 663 q 317 578 388 663 q 215 383 247 494 q 183 164 183 272 q 213 66 183 99 q 308 33 242 33 q 513 175 383 33 q 558 231 542 207 l 575 253 l 665 642 z "},"å":{"ha":669,"x_min":132,"x_max":722,"o":"m 299 -12 q 132 164 132 -12 q 171 408 132 286 q 292 619 210 531 q 479 707 374 707 q 679 686 550 707 l 722 679 l 617 226 q 582 39 601 163 l 576 1 l 531 -1 q 561 175 554 143 q 546 155 556 168 q 506 110 536 142 q 447 53 476 78 q 376 8 417 28 q 299 -12 335 -12 m 665 642 q 476 663 564 663 q 317 578 388 663 q 215 383 247 494 q 183 164 183 272 q 213 66 183 99 q 308 33 242 33 q 513 175 383 33 q 558 231 542 207 l 575 253 l 665 642 m 561 800 q 469 892 469 800 q 517 1010 469 968 q 622 1053 564 1053 q 713 956 713 1053 q 668 845 713 890 q 561 800 624 800 m 511 926 q 508 900 508 915 q 523 863 508 885 q 572 840 538 840 q 633 865 606 840 q 674 947 674 900 q 660 988 674 967 q 612 1010 646 1010 q 548 985 578 1010 q 511 926 518 961 z "},"æ":{"ha":1072,"x_min":94,"x_max":1113,"o":"m 567 68 q 229 -12 363 -12 q 96 131 96 -12 q 101 192 96 158 q 184 333 119 289 q 365 393 249 376 q 585 418 481 410 q 613 535 613 513 q 610 573 613 558 q 600 610 608 588 q 503 654 581 654 q 294 644 439 654 l 254 642 l 263 693 q 514 707 410 707 q 619 672 578 707 q 663 575 661 638 q 922 707 753 707 q 1113 518 1113 707 q 1093 374 1113 447 l 1081 325 l 622 328 q 601 172 601 235 q 746 38 601 38 q 950 47 846 38 l 989 50 l 979 0 q 735 -12 829 -12 q 567 68 607 -12 m 151 139 q 240 38 151 38 q 554 113 350 38 q 548 197 544 164 q 552 239 551 229 q 558 273 553 249 q 564 303 563 297 q 578 369 567 338 q 331 338 400 350 q 218 292 261 326 q 158 192 175 258 q 151 139 151 164 m 1040 372 q 1063 519 1063 453 q 911 657 1063 657 q 737 590 807 657 q 632 375 667 524 l 1040 372 z "},"ç":{"ha":560,"x_min":138,"x_max":656,"o":"m 324 -74 q 433 -146 433 -74 q 431 -172 433 -158 q 299 -276 407 -276 l 193 -271 l 204 -228 q 306 -233 261 -233 q 383 -172 368 -233 q 386 -153 386 -162 q 335 -115 386 -115 l 264 -115 l 289 -8 q 138 179 138 14 q 299 628 138 482 q 504 707 385 707 q 633 696 571 707 l 656 692 l 643 649 q 504 663 564 663 q 326 592 400 663 q 189 183 189 457 q 228 70 189 108 q 357 32 268 32 q 489 51 408 32 l 517 58 l 517 14 q 346 -12 424 -12 l 332 -12 l 317 -74 l 324 -74 z "},"è":{"ha":628,"x_min":135,"x_max":686,"o":"m 186 190 q 186 153 186 190 q 227 76 186 117 q 328 35 268 35 q 535 65 431 35 l 568 75 l 568 29 q 329 -12 449 -12 q 188 38 240 -12 q 135 181 135 89 q 158 363 135 272 q 224 531 181 453 q 341 658 268 610 q 506 707 414 707 q 686 564 686 707 q 590 397 686 446 q 294 347 494 347 l 207 347 q 186 190 186 264 m 307 392 q 557 428 478 392 q 636 564 636 465 q 504 663 636 663 q 217 392 301 663 l 307 392 m 356 1001 l 578 869 l 553 839 l 331 967 l 356 1001 z "},"é":{"ha":628,"x_min":135,"x_max":718,"o":"m 186 190 q 186 153 186 190 q 227 76 186 117 q 328 35 268 35 q 535 65 431 35 l 568 75 l 568 29 q 329 -12 449 -12 q 188 38 240 -12 q 135 181 135 89 q 158 363 135 272 q 224 531 181 453 q 341 658 268 610 q 506 707 414 707 q 686 564 686 707 q 590 397 686 446 q 294 347 494 347 l 207 347 q 186 190 186 264 m 307 392 q 557 428 478 392 q 636 564 636 465 q 504 663 636 663 q 217 392 301 663 l 307 392 m 435 847 l 428 882 l 710 1014 l 718 972 l 435 847 z "},"ê":{"ha":628,"x_min":135,"x_max":692,"o":"m 338 826 l 540 1014 l 571 1014 l 692 826 l 639 826 l 550 967 l 397 826 l 338 826 m 186 190 q 186 153 186 190 q 227 76 186 117 q 328 35 268 35 q 535 65 431 35 l 568 75 l 568 29 q 329 -12 449 -12 q 188 38 240 -12 q 135 181 135 89 q 158 363 135 272 q 224 531 181 453 q 341 658 268 610 q 506 707 414 707 q 686 564 686 707 q 590 397 686 446 q 294 347 494 347 l 207 347 q 186 190 186 264 m 307 392 q 557 428 478 392 q 636 564 636 465 q 504 663 636 663 q 217 392 301 663 l 307 392 z "},"ë":{"ha":628,"x_min":135,"x_max":706,"o":"m 390 879 l 411 969 l 458 969 l 438 879 l 390 879 m 640 879 l 658 969 l 706 969 l 685 879 l 640 879 m 186 190 q 186 153 186 190 q 227 76 186 117 q 328 35 268 35 q 535 65 431 35 l 568 75 l 568 29 q 329 -12 449 -12 q 188 38 240 -12 q 135 181 135 89 q 158 363 135 272 q 224 531 181 453 q 341 658 268 610 q 506 707 414 707 q 686 564 686 707 q 590 397 686 446 q 294 347 494 347 l 207 347 q 186 190 186 264 m 307 392 q 557 428 478 392 q 636 564 636 465 q 504 663 636 663 q 217 392 301 663 l 307 392 z "},"ì":{"ha":253,"x_min":101,"x_max":358,"o":"m 101 0 l 263 694 l 311 694 l 150 0 l 101 0 m 136 1001 l 358 869 l 333 839 l 111 967 l 136 1001 z "},"í":{"ha":253,"x_min":101,"x_max":564,"o":"m 101 0 l 263 694 l 311 694 l 150 0 l 101 0 m 281 847 l 274 882 l 556 1014 l 564 972 l 281 847 z "},"î":{"ha":253,"x_min":101,"x_max":485,"o":"m 131 826 l 333 1014 l 364 1014 l 485 826 l 432 826 l 343 967 l 190 826 l 131 826 m 101 0 l 263 694 l 311 694 l 150 0 l 101 0 z "},"ï":{"ha":253,"x_min":101,"x_max":472,"o":"m 157 879 l 178 969 l 225 969 l 204 879 l 157 879 m 407 879 l 425 969 l 472 969 l 451 879 l 407 879 m 101 0 l 263 694 l 311 694 l 150 0 l 101 0 z "},"ð":{"ha":708,"x_min":115,"x_max":761,"o":"m 761 614 q 747 500 761 560 q 583 108 683 229 q 343 -12 483 -12 q 170 44 225 -12 q 115 188 115 100 q 220 481 115 369 q 469 592 325 592 q 574 576 515 592 q 667 546 632 561 l 703 531 q 710 604 710 568 q 569 876 710 769 l 392 769 l 369 808 l 528 904 q 375 975 460 946 l 401 1022 q 579 936 506 988 l 735 1031 l 757 990 l 618 907 q 761 614 761 789 m 461 539 q 255 439 339 539 q 171 193 171 339 q 217 82 171 124 q 354 40 263 40 q 692 476 581 40 q 572 520 640 501 q 461 539 503 539 z "},"ñ":{"ha":678,"x_min":101,"x_max":751,"o":"m 535 661 q 512 661 535 661 q 448 639 489 661 q 376 590 407 617 q 310 524 346 564 q 257 458 275 485 l 150 0 l 101 0 l 263 694 l 311 694 l 275 538 l 289 556 q 382 647 319 596 q 453 690 413 672 q 532 707 494 707 q 649 664 607 707 q 692 549 692 621 q 665 361 692 478 l 581 0 l 533 0 l 617 358 q 643 533 643 467 q 613 630 643 599 q 535 661 582 661 m 642 875 q 550 910 617 875 q 469 946 483 946 q 381 899 444 946 l 360 883 l 357 926 q 479 990 438 990 q 569 955 506 990 q 647 919 633 919 q 726 961 674 919 l 744 976 l 751 935 q 642 875 682 875 z "},"ò":{"ha":685,"x_min":138,"x_max":704,"o":"m 485 707 q 704 489 704 707 q 606 131 704 275 q 350 -12 507 -12 q 138 193 138 -12 q 238 558 138 410 q 485 707 338 707 m 350 32 q 569 165 485 32 q 654 489 654 297 q 612 615 654 568 q 485 663 569 663 q 272 524 356 663 q 188 193 188 386 q 350 32 188 32 m 393 1001 l 615 869 l 590 839 l 368 967 l 393 1001 z "},"ó":{"ha":685,"x_min":138,"x_max":721,"o":"m 485 707 q 704 489 704 707 q 606 131 704 275 q 350 -12 507 -12 q 138 193 138 -12 q 238 558 138 410 q 485 707 338 707 m 350 32 q 569 165 485 32 q 654 489 654 297 q 612 615 654 568 q 485 663 569 663 q 272 524 356 663 q 188 193 188 386 q 350 32 188 32 m 438 847 l 431 882 l 713 1014 l 721 972 l 438 847 z "},"ô":{"ha":685,"x_min":138,"x_max":714,"o":"m 360 826 l 563 1014 l 593 1014 l 714 826 l 661 826 l 572 967 l 419 826 l 360 826 m 485 707 q 704 489 704 707 q 606 131 704 275 q 350 -12 507 -12 q 138 193 138 -12 q 238 558 138 410 q 485 707 338 707 m 350 32 q 569 165 485 32 q 654 489 654 297 q 612 615 654 568 q 485 663 569 663 q 272 524 356 663 q 188 193 188 386 q 350 32 188 32 z "},"õ":{"ha":685,"x_min":138,"x_max":740,"o":"m 485 707 q 704 489 704 707 q 606 131 704 275 q 350 -12 507 -12 q 138 193 138 -12 q 238 558 138 410 q 485 707 338 707 m 350 32 q 569 165 485 32 q 654 489 654 297 q 612 615 654 568 q 485 663 569 663 q 272 524 356 663 q 188 193 188 386 q 350 32 188 32 m 631 875 q 539 910 606 875 q 458 946 472 946 q 369 899 433 946 l 349 883 l 346 926 q 468 990 426 990 q 558 955 494 990 q 636 919 622 919 q 715 961 663 919 l 733 976 l 740 935 q 631 875 671 875 z "},"ö":{"ha":685,"x_min":138,"x_max":704,"o":"m 485 707 q 704 489 704 707 q 606 131 704 275 q 350 -12 507 -12 q 138 193 138 -12 q 238 558 138 410 q 485 707 338 707 m 350 32 q 569 165 485 32 q 654 489 654 297 q 612 615 654 568 q 485 663 569 663 q 272 524 356 663 q 188 193 188 386 q 350 32 188 32 m 396 879 l 417 969 l 457 969 l 436 879 l 396 879 m 639 879 l 657 969 l 697 969 l 676 879 l 639 879 z "},"÷":{"ha":778,"x_min":161,"x_max":778,"o":"m 161 325 l 161 372 l 778 372 l 778 325 l 161 325 m 443 532 l 443 643 l 496 643 l 496 532 l 443 532 m 443 54 l 443 165 l 496 165 l 496 54 l 443 54 z "},"ø":{"ha":683,"x_min":88,"x_max":739,"o":"m 486 710 q 606 686 556 710 l 701 839 l 739 822 l 639 664 q 706 492 706 610 q 607 134 706 278 q 351 -10 508 -10 q 231 13 282 -10 l 125 -157 l 88 -142 l 197 33 q 139 196 139 83 q 239 561 139 413 q 486 710 339 710 m 351 35 q 571 167 486 35 q 656 492 656 300 q 611 619 656 572 l 257 56 q 351 35 294 35 m 486 665 q 273 527 357 665 q 189 196 189 389 q 226 79 189 119 l 400 354 l 579 643 q 486 665 539 665 z "},"ù":{"ha":678,"x_min":146,"x_max":736,"o":"m 394 1001 l 617 869 l 592 839 l 369 967 l 394 1001 m 563 157 q 306 -12 426 -12 q 189 31 232 -12 q 146 145 146 74 q 172 333 146 217 l 257 694 l 304 694 l 221 336 q 194 163 194 228 q 226 65 194 97 q 303 33 258 33 q 389 54 349 33 q 461 106 429 75 q 565 215 531 168 l 581 236 l 688 694 l 736 694 l 575 0 l 526 0 l 563 157 z "},"ú":{"ha":678,"x_min":146,"x_max":742,"o":"m 563 157 q 306 -12 426 -12 q 189 31 232 -12 q 146 145 146 74 q 172 333 146 217 l 257 694 l 304 694 l 221 336 q 194 163 194 228 q 226 65 194 97 q 303 33 258 33 q 389 54 349 33 q 461 106 429 75 q 565 215 531 168 l 581 236 l 688 694 l 736 694 l 575 0 l 526 0 l 563 157 m 458 847 l 451 882 l 733 1014 l 742 972 l 458 847 z "},"û":{"ha":678,"x_min":146,"x_max":736,"o":"m 326 826 l 529 1014 l 560 1014 l 681 826 l 628 826 l 539 967 l 386 826 l 326 826 m 563 157 q 306 -12 426 -12 q 189 31 232 -12 q 146 145 146 74 q 172 333 146 217 l 257 694 l 304 694 l 221 336 q 194 163 194 228 q 226 65 194 97 q 303 33 258 33 q 389 54 349 33 q 461 106 429 75 q 565 215 531 168 l 581 236 l 688 694 l 736 694 l 575 0 l 526 0 l 563 157 z "},"ü":{"ha":678,"x_min":146,"x_max":736,"o":"m 375 879 l 396 969 l 443 969 l 422 879 l 375 879 m 625 879 l 643 969 l 690 969 l 669 879 l 625 879 m 563 157 q 306 -12 426 -12 q 189 31 232 -12 q 146 145 146 74 q 172 333 146 217 l 257 694 l 304 694 l 221 336 q 194 163 194 228 q 226 65 194 97 q 303 33 258 33 q 389 54 349 33 q 461 106 429 75 q 565 215 531 168 l 581 236 l 688 694 l 736 694 l 575 0 l 526 0 l 563 157 z "},"ý":{"ha":622,"x_min":149,"x_max":739,"o":"m 204 694 l 254 694 l 286 44 l 342 44 l 686 694 l 739 694 l 201 -317 l 149 -317 l 319 0 l 239 0 l 204 694 m 417 847 l 410 882 l 692 1014 l 700 972 l 417 847 z "},"þ":{"ha":660,"x_min":26,"x_max":690,"o":"m 525 707 q 689 500 689 707 q 669 361 689 432 q 535 79 618 171 q 307 -12 451 -12 q 191 -5 233 -12 q 149 4 149 3 l 72 -317 l 26 -317 l 340 1011 l 388 1011 l 290 608 q 410 679 343 651 q 525 707 478 707 m 622 363 q 639 467 639 419 q 632 556 639 515 q 594 627 625 597 q 524 657 564 657 q 447 645 483 657 q 381 617 410 633 q 289 558 321 585 l 275 549 l 158 54 l 315 38 q 506 113 438 38 q 622 363 574 189 z "},"ÿ":{"ha":622,"x_min":149,"x_max":739,"o":"m 344 879 l 365 969 l 413 969 l 392 879 l 344 879 m 594 879 l 613 969 l 660 969 l 639 879 l 594 879 m 204 694 l 254 694 l 286 44 l 342 44 l 686 694 l 739 694 l 201 -317 l 149 -317 l 319 0 l 239 0 l 204 694 z "},"Ā":{"ha":772,"x_min":44,"x_max":847,"o":"m 463 1174 l 469 1210 l 847 1210 l 838 1174 l 463 1174 m 44 0 l 560 972 l 683 972 l 736 0 l 686 0 l 669 300 l 254 300 l 96 0 l 44 0 m 588 926 l 279 344 l 667 344 l 638 926 l 588 926 z "},"ā":{"ha":669,"x_min":132,"x_max":763,"o":"m 299 -12 q 132 164 132 -12 q 171 408 132 286 q 292 619 210 531 q 479 707 374 707 q 679 686 550 707 l 722 679 l 617 226 q 582 39 601 163 l 576 1 l 531 -1 q 561 175 554 143 q 546 155 556 168 q 506 110 536 142 q 447 53 476 78 q 376 8 417 28 q 299 -12 335 -12 m 665 642 q 476 663 564 663 q 317 578 388 663 q 215 383 247 494 q 183 164 183 272 q 213 66 183 99 q 308 33 242 33 q 513 175 383 33 q 558 231 542 207 l 575 253 l 665 642 m 403 899 l 411 935 l 763 935 l 753 899 l 403 899 z "},"Ă":{"ha":772,"x_min":44,"x_max":851,"o":"m 546 1278 q 542 1230 542 1257 q 565 1180 542 1203 q 646 1157 588 1157 q 750 1190 704 1157 q 810 1278 796 1224 l 851 1278 q 774 1158 832 1200 q 639 1115 717 1115 q 500 1231 500 1115 q 504 1278 500 1253 l 546 1278 m 44 0 l 560 972 l 683 972 l 736 0 l 686 0 l 669 300 l 254 300 l 96 0 l 44 0 m 588 926 l 279 344 l 667 344 l 638 926 l 588 926 z "},"ă":{"ha":669,"x_min":132,"x_max":783,"o":"m 299 -12 q 132 164 132 -12 q 171 408 132 286 q 292 619 210 531 q 479 707 374 707 q 679 686 550 707 l 722 679 l 617 226 q 582 39 601 163 l 576 1 l 531 -1 q 561 175 554 143 q 546 155 556 168 q 506 110 536 142 q 447 53 476 78 q 376 8 417 28 q 299 -12 335 -12 m 665 642 q 476 663 564 663 q 317 578 388 663 q 215 383 247 494 q 183 164 183 272 q 213 66 183 99 q 308 33 242 33 q 513 175 383 33 q 558 231 542 207 l 575 253 l 665 642 m 474 1001 q 467 953 467 979 q 483 903 467 928 q 578 865 511 865 q 687 903 644 865 q 744 1001 729 940 l 783 1001 q 565 826 739 826 q 451 878 486 826 q 429 944 429 911 q 435 1001 429 976 l 474 1001 z "},"Ą":{"ha":772,"x_min":44,"x_max":736,"o":"m 736 0 l 731 0 q 636 -100 682 -43 q 590 -196 590 -157 q 635 -229 590 -229 l 713 -219 l 707 -264 q 621 -275 657 -275 q 535 -200 535 -275 q 584 -94 535 -154 q 685 10 633 -33 l 669 300 l 254 300 l 96 0 l 44 0 l 560 972 l 683 972 l 736 4 l 736 0 m 588 926 l 279 344 l 667 344 l 638 926 l 588 926 z "},"ą":{"ha":669,"x_min":132,"x_max":722,"o":"m 461 -275 q 375 -200 375 -275 q 426 -91 375 -153 q 531 14 478 -29 l 532 13 q 561 175 547 113 q 546 155 556 168 q 506 110 536 142 q 447 53 476 78 q 376 8 417 28 q 299 -12 335 -12 q 132 164 132 -12 q 171 408 132 286 q 292 619 210 531 q 479 707 374 707 q 679 686 550 707 l 722 679 l 617 226 q 582 39 601 163 l 576 1 l 572 1 q 478 -97 525 -39 q 431 -196 431 -156 q 475 -229 431 -229 l 553 -219 l 547 -264 q 461 -275 497 -275 m 665 642 q 476 663 564 663 q 317 578 388 663 q 215 383 247 494 q 183 164 183 272 q 213 66 183 99 q 308 33 242 33 q 513 175 383 33 q 558 231 542 207 l 575 253 l 665 642 z "},"Ć":{"ha":708,"x_min":168,"x_max":879,"o":"m 425 -12 q 168 264 168 -12 q 244 646 168 463 q 475 939 331 854 q 651 985 557 985 q 844 965 754 985 l 878 958 l 867 914 q 645 938 746 938 q 460 872 544 938 q 325 703 376 806 q 221 264 221 490 q 272 90 221 146 q 432 35 322 35 q 626 54 538 35 l 658 61 l 657 15 q 425 -12 536 -12 m 594 1108 l 583 1143 l 867 1276 l 879 1236 l 594 1108 z "},"ć":{"ha":560,"x_min":138,"x_max":717,"o":"m 504 707 q 633 696 571 707 l 656 692 l 643 649 q 504 663 564 663 q 326 592 400 663 q 189 183 189 457 q 228 70 189 108 q 357 32 268 32 q 489 51 408 32 l 517 58 l 517 14 q 346 -12 424 -12 q 138 179 138 -12 q 299 628 138 482 q 504 707 385 707 m 433 847 l 426 882 l 708 1014 l 717 972 l 433 847 z "},"Ĉ":{"ha":708,"x_min":168,"x_max":878,"o":"m 425 -12 q 168 264 168 -12 q 244 646 168 463 q 475 939 331 854 q 651 985 557 985 q 844 965 754 985 l 878 958 l 867 914 q 645 938 746 938 q 460 872 544 938 q 325 703 376 806 q 221 264 221 490 q 272 90 221 146 q 432 35 322 35 q 626 54 538 35 l 658 61 l 657 15 q 425 -12 536 -12 m 506 1115 l 722 1293 l 742 1293 l 876 1115 l 829 1115 l 728 1250 l 563 1115 l 506 1115 z "},"ĉ":{"ha":560,"x_min":138,"x_max":688,"o":"m 504 707 q 633 696 571 707 l 656 692 l 643 649 q 504 663 564 663 q 326 592 400 663 q 189 183 189 457 q 228 70 189 108 q 357 32 268 32 q 489 51 408 32 l 517 58 l 517 14 q 346 -12 424 -12 q 138 179 138 -12 q 299 628 138 482 q 504 707 385 707 m 344 826 l 547 1014 l 567 1014 l 688 826 l 640 826 l 551 967 l 399 826 l 344 826 z "},"Ċ":{"ha":708,"x_min":168,"x_max":878,"o":"m 425 -12 q 168 264 168 -12 q 244 646 168 463 q 475 939 331 854 q 651 985 557 985 q 844 965 754 985 l 878 958 l 867 914 q 645 938 746 938 q 460 872 544 938 q 325 703 376 806 q 221 264 221 490 q 272 90 221 146 q 432 35 322 35 q 626 54 538 35 l 658 61 l 657 15 q 425 -12 536 -12 m 667 1121 l 683 1201 l 722 1201 l 707 1121 l 667 1121 z "},"ċ":{"ha":560,"x_min":138,"x_max":656,"o":"m 504 707 q 633 696 571 707 l 656 692 l 643 649 q 504 663 564 663 q 326 592 400 663 q 189 183 189 457 q 228 70 189 108 q 357 32 268 32 q 489 51 408 32 l 517 58 l 517 14 q 346 -12 424 -12 q 138 179 138 -12 q 299 628 138 482 q 504 707 385 707 m 494 861 l 514 942 l 554 942 l 536 861 l 494 861 z "},"Č":{"ha":708,"x_min":168,"x_max":914,"o":"m 425 -12 q 168 264 168 -12 q 244 646 168 463 q 475 939 331 854 q 651 985 557 985 q 844 965 754 985 l 878 958 l 867 914 q 645 938 746 938 q 460 872 544 938 q 325 703 376 806 q 221 264 221 490 q 272 90 221 146 q 432 35 322 35 q 626 54 538 35 l 658 61 l 657 15 q 425 -12 536 -12 m 914 1293 l 699 1115 l 675 1115 l 536 1293 l 585 1293 l 692 1156 l 858 1293 l 914 1293 z "},"č":{"ha":560,"x_min":138,"x_max":738,"o":"m 526 826 l 507 826 l 388 1014 l 432 1014 l 524 868 l 683 1014 l 738 1014 l 526 826 m 504 707 q 633 696 571 707 l 656 692 l 643 649 q 504 663 564 663 q 326 592 400 663 q 189 183 189 457 q 228 70 189 108 q 357 32 268 32 q 489 51 408 32 l 517 58 l 517 14 q 346 -12 424 -12 q 138 179 138 -12 q 299 628 138 482 q 504 707 385 707 z "},"Ď":{"ha":844,"x_min":119,"x_max":897,"o":"m 449 0 l 119 0 l 344 972 l 661 972 q 842 903 788 972 q 897 688 897 833 q 789 239 897 457 q 648 67 738 135 q 449 0 558 0 m 844 700 q 844 756 844 700 q 801 869 844 813 q 651 926 757 926 l 383 926 l 182 46 l 461 46 q 625 109 550 46 q 747 270 700 172 q 819 478 793 368 q 844 700 844 588 m 851 1293 l 636 1115 l 613 1115 l 474 1293 l 522 1293 l 629 1156 l 796 1293 l 851 1293 z "},"ď":{"ha":686,"x_min":132,"x_max":925,"o":"m 925 972 l 854 667 l 810 667 l 881 972 l 925 972 m 290 -12 q 132 163 132 -12 q 172 410 132 288 q 292 619 211 532 q 476 707 374 707 q 647 690 564 707 l 675 685 l 751 1014 l 800 1014 l 565 0 l 518 0 l 554 158 q 540 140 549 151 q 501 99 531 128 q 443 47 472 69 q 372 6 414 25 q 290 -12 329 -12 m 665 642 q 478 663 568 663 q 317 578 388 663 q 215 383 247 494 q 183 163 183 271 q 304 32 183 32 q 378 53 338 32 q 451 106 418 75 q 556 217 519 168 l 572 239 l 665 642 z "},"Đ":{"ha":847,"x_min":122,"x_max":900,"o":"m 451 0 l 122 0 l 229 461 l 124 461 l 133 514 l 242 514 l 347 972 l 664 972 q 845 903 790 972 q 900 706 900 833 q 872 461 900 578 q 792 240 844 344 q 651 67 740 135 q 451 0 561 0 m 749 270 q 773 319 749 270 q 822 478 796 368 q 847 700 847 588 q 803 869 847 813 q 654 926 760 926 l 386 926 l 292 514 l 517 514 l 504 461 l 279 461 l 185 46 l 464 46 q 628 109 553 46 q 749 270 703 172 z "},"đ":{"ha":668,"x_min":132,"x_max":854,"o":"m 290 -12 q 132 163 132 -12 q 172 410 132 288 q 292 619 211 532 q 476 707 374 707 q 647 690 564 707 l 675 685 l 715 857 l 492 857 l 503 907 l 726 907 l 751 1014 l 800 1014 l 775 907 l 854 907 l 842 857 l 764 857 l 565 0 l 518 0 l 554 158 q 540 140 549 151 q 501 99 531 128 q 443 47 472 69 q 372 6 414 25 q 290 -12 329 -12 m 665 642 q 478 663 568 663 q 317 578 388 663 q 215 383 247 494 q 183 163 183 271 q 304 32 183 32 q 378 53 338 32 q 451 106 418 75 q 556 217 519 168 l 572 239 l 665 642 z "},"Ē":{"ha":708,"x_min":119,"x_max":868,"o":"m 451 1160 l 458 1196 l 836 1196 l 826 1160 l 451 1160 m 119 0 l 344 972 l 868 972 l 857 926 l 383 926 l 290 522 l 686 522 l 675 476 l 279 476 l 181 46 l 654 46 l 643 0 l 119 0 z "},"ē":{"ha":628,"x_min":135,"x_max":749,"o":"m 186 190 q 186 153 186 190 q 227 76 186 117 q 328 35 268 35 q 535 65 431 35 l 568 75 l 568 29 q 329 -12 449 -12 q 188 38 240 -12 q 135 181 135 89 q 158 363 135 272 q 224 531 181 453 q 341 658 268 610 q 506 707 414 707 q 686 564 686 707 q 590 397 686 446 q 294 347 494 347 l 207 347 q 186 190 186 264 m 307 392 q 557 428 478 392 q 636 564 636 465 q 504 663 636 663 q 217 392 301 663 l 307 392 m 389 899 l 397 935 l 749 935 l 739 899 l 389 899 z "},"Ĕ":{"ha":708,"x_min":119,"x_max":868,"o":"m 533 1279 q 529 1231 529 1258 q 552 1181 529 1204 q 633 1158 575 1158 q 738 1192 692 1158 q 797 1279 783 1225 l 839 1279 q 762 1159 819 1201 q 626 1117 704 1117 q 488 1232 488 1117 q 492 1279 488 1254 l 533 1279 m 119 0 l 344 972 l 868 972 l 857 926 l 383 926 l 290 522 l 686 522 l 675 476 l 279 476 l 181 46 l 654 46 l 643 0 l 119 0 z "},"ĕ":{"ha":628,"x_min":135,"x_max":749,"o":"m 186 190 q 186 153 186 190 q 227 76 186 117 q 328 35 268 35 q 535 65 431 35 l 568 75 l 568 29 q 329 -12 449 -12 q 188 38 240 -12 q 135 181 135 89 q 158 363 135 272 q 224 531 181 453 q 341 658 268 610 q 506 707 414 707 q 686 564 686 707 q 590 397 686 446 q 294 347 494 347 l 207 347 q 186 190 186 264 m 307 392 q 557 428 478 392 q 636 564 636 465 q 504 663 636 663 q 217 392 301 663 l 307 392 m 439 1001 q 432 953 432 979 q 450 903 432 928 q 543 865 476 865 q 652 903 610 865 q 710 1001 694 940 l 749 1001 q 531 826 704 826 q 417 878 451 826 q 394 944 394 911 q 400 1001 394 976 l 439 1001 z "},"Ė":{"ha":708,"x_min":119,"x_max":868,"o":"m 626 1207 l 643 1288 l 682 1288 l 667 1207 l 626 1207 m 119 0 l 344 972 l 868 972 l 857 926 l 383 926 l 290 522 l 686 522 l 675 476 l 279 476 l 181 46 l 654 46 l 643 0 l 119 0 z "},"ė":{"ha":628,"x_min":135,"x_max":686,"o":"m 186 190 q 186 153 186 190 q 227 76 186 117 q 328 35 268 35 q 535 65 431 35 l 568 75 l 568 29 q 329 -12 449 -12 q 188 38 240 -12 q 135 181 135 89 q 158 363 135 272 q 224 531 181 453 q 341 658 268 610 q 506 707 414 707 q 686 564 686 707 q 590 397 686 446 q 294 347 494 347 l 207 347 q 186 190 186 264 m 307 392 q 557 428 478 392 q 636 564 636 465 q 504 663 636 663 q 217 392 301 663 l 307 392 m 500 861 l 519 942 l 560 942 l 542 861 l 500 861 z "},"Ę":{"ha":708,"x_min":119,"x_max":868,"o":"m 464 -196 q 508 -229 464 -229 l 586 -219 l 581 -264 q 494 -275 531 -275 q 408 -200 408 -275 q 452 -101 408 -157 q 547 0 496 -44 l 119 0 l 344 972 l 868 972 l 857 926 l 383 926 l 290 522 l 686 522 l 675 476 l 279 476 l 181 46 l 654 46 l 643 0 l 604 0 q 510 -100 556 -43 q 464 -196 464 -157 z "},"ę":{"ha":628,"x_min":135,"x_max":686,"o":"m 446 -247 q 360 -172 360 -247 q 472 3 360 -103 q 317 -12 393 -12 q 188 38 240 -12 q 135 181 135 89 q 158 363 135 272 q 224 531 181 453 q 341 658 268 610 q 506 707 414 707 q 686 564 686 707 q 590 397 686 446 q 294 347 494 347 l 207 347 q 186 190 186 264 q 227 76 186 117 q 328 35 268 35 q 535 65 431 35 l 568 75 l 568 29 l 551 24 q 460 -74 504 -17 q 415 -168 415 -131 q 460 -201 415 -201 l 538 -192 l 532 -236 q 446 -247 482 -247 m 307 392 q 557 428 478 392 q 636 564 636 465 q 504 663 636 663 q 217 392 301 663 l 307 392 z "},"Ě":{"ha":708,"x_min":119,"x_max":868,"o":"m 847 1293 l 632 1115 l 608 1115 l 469 1293 l 518 1293 l 625 1156 l 792 1293 l 847 1293 m 119 0 l 344 972 l 868 972 l 857 926 l 383 926 l 290 522 l 686 522 l 675 476 l 279 476 l 181 46 l 654 46 l 643 0 l 119 0 z "},"ě":{"ha":628,"x_min":135,"x_max":761,"o":"m 186 190 q 186 153 186 190 q 227 76 186 117 q 328 35 268 35 q 535 65 431 35 l 568 75 l 568 29 q 329 -12 449 -12 q 188 38 240 -12 q 135 181 135 89 q 158 363 135 272 q 224 531 181 453 q 341 658 268 610 q 506 707 414 707 q 686 564 686 707 q 590 397 686 446 q 294 347 494 347 l 207 347 q 186 190 186 264 m 307 392 q 557 428 478 392 q 636 564 636 465 q 504 663 636 663 q 217 392 301 663 l 307 392 m 550 826 l 531 826 l 411 1014 l 456 1014 l 547 868 l 707 1014 l 761 1014 l 550 826 z "},"Ĝ":{"ha":799,"x_min":168,"x_max":924,"o":"m 507 1104 l 710 1292 l 740 1292 l 861 1104 l 808 1104 l 719 1244 l 567 1104 l 507 1104 m 442 -12 q 168 243 168 -12 q 243 647 168 460 q 337 819 282 744 q 474 940 392 894 q 654 985 557 985 q 886 958 764 985 l 924 950 l 910 908 q 643 939 768 939 q 488 894 558 939 q 368 778 417 850 q 286 614 319 706 q 221 243 221 440 q 444 33 221 33 q 633 56 532 33 l 668 64 l 754 435 l 571 435 l 582 481 l 815 481 l 710 26 q 442 -12 568 -12 z "},"ĝ":{"ha":636,"x_min":33,"x_max":774,"o":"m 457 707 q 567 686 525 707 l 774 694 l 763 646 l 610 646 q 644 545 644 601 q 628 441 644 489 q 578 349 611 393 q 485 276 544 304 q 350 247 425 247 l 314 250 q 257 131 257 176 q 283 92 257 103 q 409 69 308 81 q 556 23 510 58 q 601 -86 601 -12 q 503 -258 601 -183 q 246 -332 404 -332 q 91 -282 149 -332 q 33 -156 33 -232 q 226 74 33 -31 q 208 121 208 89 q 226 187 208 153 q 261 242 244 221 l 279 261 q 182 422 182 300 q 256 616 182 525 q 457 707 331 707 m 263 47 q 137 -40 189 11 q 85 -151 85 -92 q 129 -249 85 -210 q 257 -287 174 -287 q 464 -230 378 -287 q 550 -86 550 -172 q 515 -9 550 -32 q 389 23 479 14 q 263 47 299 32 m 361 292 q 468 316 421 292 q 542 378 515 340 q 594 522 594 450 q 562 628 594 593 q 451 663 529 663 q 292 585 351 663 q 232 425 232 507 q 361 292 232 292 m 321 826 l 524 1014 l 543 1014 l 664 826 l 617 826 l 528 967 l 375 826 l 321 826 z "},"Ğ":{"ha":799,"x_min":168,"x_max":924,"o":"m 597 1244 q 624 1174 597 1201 q 710 1147 651 1147 q 813 1184 768 1147 q 872 1279 857 1221 l 917 1279 q 834 1148 896 1199 q 698 1097 772 1097 q 587 1136 624 1097 q 550 1233 550 1175 q 556 1279 550 1258 l 601 1279 q 597 1244 597 1263 m 442 -12 q 168 243 168 -12 q 243 647 168 460 q 337 819 282 744 q 474 940 392 894 q 654 985 557 985 q 886 958 764 985 l 924 950 l 910 908 q 643 939 768 939 q 488 894 558 939 q 368 778 417 850 q 286 614 319 706 q 221 243 221 440 q 444 33 221 33 q 633 56 532 33 l 668 64 l 754 435 l 571 435 l 582 481 l 815 481 l 710 26 q 442 -12 568 -12 z "},"ğ":{"ha":636,"x_min":33,"x_max":774,"o":"m 457 707 q 567 686 525 707 l 774 694 l 763 646 l 610 646 q 644 545 644 601 q 628 441 644 489 q 578 349 611 393 q 485 276 544 304 q 350 247 425 247 l 314 250 q 257 131 257 176 q 283 92 257 103 q 409 69 308 81 q 556 23 510 58 q 601 -86 601 -12 q 503 -258 601 -183 q 246 -332 404 -332 q 91 -282 149 -332 q 33 -156 33 -232 q 226 74 33 -31 q 208 121 208 89 q 226 187 208 153 q 261 242 244 221 l 279 261 q 182 422 182 300 q 256 616 182 525 q 457 707 331 707 m 263 47 q 137 -40 189 11 q 85 -151 85 -92 q 129 -249 85 -210 q 257 -287 174 -287 q 464 -230 378 -287 q 550 -86 550 -172 q 515 -9 550 -32 q 389 23 479 14 q 263 47 299 32 m 361 292 q 468 316 421 292 q 542 378 515 340 q 594 522 594 450 q 562 628 594 593 q 451 663 529 663 q 292 585 351 663 q 232 425 232 507 q 361 292 232 292 m 447 1001 q 440 953 440 979 q 458 903 440 928 q 551 865 485 865 q 660 903 618 865 q 718 1001 703 940 l 757 1001 q 539 826 713 826 q 425 878 460 826 q 403 944 403 911 q 408 1001 403 976 l 447 1001 z "},"Ġ":{"ha":799,"x_min":168,"x_max":924,"o":"m 688 1167 l 707 1247 l 753 1247 l 735 1167 l 688 1167 m 442 -12 q 168 243 168 -12 q 243 647 168 460 q 337 819 282 744 q 474 940 392 894 q 654 985 557 985 q 886 958 764 985 l 924 950 l 910 908 q 643 939 768 939 q 488 894 558 939 q 368 778 417 850 q 286 614 319 706 q 221 243 221 440 q 444 33 221 33 q 633 56 532 33 l 668 64 l 754 435 l 571 435 l 582 481 l 815 481 l 710 26 q 442 -12 568 -12 z "},"ġ":{"ha":636,"x_min":33,"x_max":774,"o":"m 457 707 q 567 686 525 707 l 774 694 l 763 646 l 610 646 q 644 545 644 601 q 628 441 644 489 q 578 349 611 393 q 485 276 544 304 q 350 247 425 247 l 314 250 q 257 131 257 176 q 283 92 257 103 q 409 69 308 81 q 556 23 510 58 q 601 -86 601 -12 q 503 -258 601 -183 q 246 -332 404 -332 q 91 -282 149 -332 q 33 -156 33 -232 q 226 74 33 -31 q 208 121 208 89 q 226 187 208 153 q 261 242 244 221 l 279 261 q 182 422 182 300 q 256 616 182 525 q 457 707 331 707 m 263 47 q 137 -40 189 11 q 85 -151 85 -92 q 129 -249 85 -210 q 257 -287 174 -287 q 464 -230 378 -287 q 550 -86 550 -172 q 515 -9 550 -32 q 389 23 479 14 q 263 47 299 32 m 361 292 q 468 316 421 292 q 542 378 515 340 q 594 522 594 450 q 562 628 594 593 q 451 663 529 663 q 292 585 351 663 q 232 425 232 507 q 361 292 232 292 m 478 861 l 497 942 l 538 942 l 519 861 l 478 861 z "},"Ģ":{"ha":799,"x_min":168,"x_max":924,"o":"m 442 -12 q 168 243 168 -12 q 243 647 168 460 q 337 819 282 744 q 474 940 392 894 q 654 985 557 985 q 886 958 764 985 l 924 950 l 910 908 q 643 939 768 939 q 488 894 558 939 q 368 778 417 850 q 286 614 319 706 q 221 243 221 440 q 444 33 221 33 q 633 56 532 33 l 668 64 l 754 435 l 571 435 l 582 481 l 815 481 l 710 26 q 442 -12 568 -12 m 381 -101 l 428 -101 l 306 -368 l 269 -368 l 381 -101 z "},"ģ":{"ha":636,"x_min":33,"x_max":774,"o":"m 582 1083 l 619 1083 l 507 817 l 460 817 l 582 1083 m 457 707 q 567 686 525 707 l 774 694 l 763 646 l 610 646 q 644 545 644 601 q 628 441 644 489 q 578 349 611 393 q 485 276 544 304 q 350 247 425 247 l 314 250 q 257 131 257 176 q 283 92 257 103 q 409 69 308 81 q 556 23 510 58 q 601 -86 601 -12 q 503 -258 601 -183 q 246 -332 404 -332 q 91 -282 149 -332 q 33 -156 33 -232 q 226 74 33 -31 q 208 121 208 89 q 226 187 208 153 q 261 242 244 221 l 279 261 q 182 422 182 300 q 256 616 182 525 q 457 707 331 707 m 263 47 q 137 -40 189 11 q 85 -151 85 -92 q 129 -249 85 -210 q 257 -287 174 -287 q 464 -230 378 -287 q 550 -86 550 -172 q 515 -9 550 -32 q 389 23 479 14 q 263 47 299 32 m 361 292 q 468 316 421 292 q 542 378 515 340 q 594 522 594 450 q 562 628 594 593 q 451 663 529 663 q 292 585 351 663 q 232 425 232 507 q 361 292 232 292 z "},"Ĥ":{"ha":869,"x_min":119,"x_max":975,"o":"m 700 0 l 807 464 l 276 464 l 169 0 l 119 0 l 344 972 l 394 972 l 288 510 l 818 510 l 925 972 l 975 972 l 750 0 l 700 0 m 492 1115 l 708 1293 l 728 1293 l 863 1115 l 815 1115 l 714 1250 l 549 1115 l 492 1115 z "},"ĥ":{"ha":679,"x_min":103,"x_max":790,"o":"m 275 535 q 533 707 413 707 q 651 664 608 707 q 693 547 693 621 q 665 357 693 474 l 582 0 l 535 0 l 618 358 q 644 533 644 467 q 525 661 644 661 q 450 640 490 661 q 378 589 410 619 q 272 476 314 529 l 257 456 l 151 0 l 103 0 l 338 1014 l 386 1014 l 275 535 m 419 1074 l 636 1251 l 656 1251 l 790 1074 l 743 1074 l 642 1208 l 476 1074 l 419 1074 z "},"Ħ":{"ha":896,"x_min":133,"x_max":1064,"o":"m 175 718 l 185 768 l 310 768 l 357 972 l 404 972 l 357 768 l 893 768 l 940 972 l 988 972 l 940 768 l 1064 768 l 1050 718 l 929 718 l 764 0 l 717 0 l 824 464 l 288 464 l 181 0 l 133 0 l 299 718 l 175 718 m 299 514 l 835 514 l 882 718 l 344 718 l 299 514 z "},"ħ":{"ha":679,"x_min":103,"x_max":693,"o":"m 275 535 q 533 707 413 707 q 651 664 608 707 q 693 547 693 621 q 665 357 693 474 l 582 0 l 535 0 l 618 358 q 644 533 644 467 q 525 661 644 661 q 450 640 490 661 q 378 589 410 619 q 272 476 314 529 l 257 456 l 151 0 l 103 0 l 299 849 l 219 849 l 229 893 l 310 893 l 338 1014 l 386 1014 l 358 893 l 581 893 l 569 849 l 347 849 l 275 535 z "},"Ĩ":{"ha":289,"x_min":119,"x_max":631,"o":"m 631 1215 q 509 1136 543 1136 q 405 1181 475 1136 q 319 1225 335 1225 q 218 1167 294 1225 l 193 1149 l 192 1188 q 320 1267 283 1267 q 426 1223 357 1267 q 511 1179 496 1179 q 603 1232 538 1179 l 625 1250 l 631 1215 m 119 0 l 344 972 l 394 972 l 169 0 l 119 0 z "},"ĩ":{"ha":253,"x_min":101,"x_max":524,"o":"m 101 0 l 263 694 l 311 694 l 150 0 l 101 0 m 414 875 q 322 910 389 875 q 242 946 256 946 q 153 899 217 946 l 132 883 l 129 926 q 251 990 210 990 q 342 955 278 990 q 419 919 406 919 q 499 961 446 919 l 517 976 l 524 935 q 414 875 454 875 z "},"Ī":{"ha":289,"x_min":119,"x_max":600,"o":"m 215 1174 l 222 1210 l 600 1210 l 590 1174 l 215 1174 m 119 0 l 344 972 l 394 972 l 169 0 l 119 0 z "},"ī":{"ha":253,"x_min":101,"x_max":508,"o":"m 101 0 l 263 694 l 311 694 l 150 0 l 101 0 m 149 899 l 157 935 l 508 935 l 499 899 l 149 899 z "},"Ĭ":{"ha":289,"x_min":119,"x_max":608,"o":"m 303 1278 q 299 1230 299 1257 q 322 1180 299 1203 q 403 1157 344 1157 q 507 1190 461 1157 q 567 1278 553 1224 l 608 1278 q 531 1158 589 1200 q 396 1115 474 1115 q 257 1231 257 1115 q 261 1278 257 1253 l 303 1278 m 119 0 l 344 972 l 394 972 l 169 0 l 119 0 z "},"ĭ":{"ha":253,"x_min":101,"x_max":528,"o":"m 101 0 l 263 694 l 311 694 l 150 0 l 101 0 m 218 1001 q 211 953 211 979 q 228 903 211 928 q 322 865 256 865 q 431 903 389 865 q 489 1001 474 940 l 528 1001 q 310 826 483 826 q 196 878 231 826 q 174 944 174 911 q 179 1001 174 976 l 218 1001 z "},"Į":{"ha":289,"x_min":-35,"x_max":394,"o":"m 51 -275 q -35 -200 -35 -275 q 17 -91 -35 -153 q 122 13 69 -29 l 344 972 l 394 972 l 169 0 q 70 -97 119 -39 q 21 -196 21 -156 q 65 -229 21 -229 l 143 -219 l 138 -264 q 51 -275 88 -275 z "},"į":{"ha":254,"x_min":-49,"x_max":376,"o":"m 38 -275 q -49 -200 -49 -275 q 3 -90 -49 -153 q 106 13 54 -28 l 264 694 l 313 694 l 151 0 q 55 -99 103 -42 q 7 -196 7 -156 q 51 -229 7 -229 l 129 -219 l 124 -264 q 38 -275 74 -275 m 307 886 l 326 969 l 376 969 l 357 886 l 307 886 z "},"İ":{"ha":289,"x_min":119,"x_max":447,"o":"m 392 1207 l 408 1288 l 447 1288 l 432 1207 l 392 1207 m 119 0 l 344 972 l 394 972 l 169 0 l 119 0 z "},"ı":{"ha":253,"x_min":101,"x_max":311,"o":"m 101 0 l 263 694 l 311 694 l 150 0 l 101 0 z "},"Ĵ":{"ha":351,"x_min":10,"x_max":640,"o":"m 461 972 l 271 149 q 238 24 251 64 q 195 -49 224 -17 q 125 -90 167 -81 q 10 -99 83 -99 l 18 -53 q 157 -15 122 -53 q 224 161 192 22 l 411 972 l 461 972 m 269 1115 l 486 1293 l 506 1293 l 640 1115 l 593 1115 l 492 1250 l 326 1115 l 269 1115 z "},"ĵ":{"ha":253,"x_min":-137,"x_max":475,"o":"m 101 0 l 263 694 l 311 694 l 150 0 q 71 -210 113 -160 q -121 -332 29 -261 l -137 -290 q 35 -178 -1 -222 q 101 0 71 -135 m 132 826 l 335 1014 l 354 1014 l 475 826 l 428 826 l 339 967 l 186 826 l 132 826 z "},"Ķ":{"ha":706,"x_min":119,"x_max":900,"o":"m 332 -101 l 379 -101 l 257 -368 l 221 -368 l 332 -101 m 622 0 l 436 457 l 275 457 l 169 0 l 119 0 l 344 972 l 394 972 l 285 503 l 438 503 l 840 972 l 900 972 l 478 481 l 675 0 l 622 0 z "},"ķ":{"ha":599,"x_min":103,"x_max":728,"o":"m 143 -368 l 254 -101 l 301 -101 l 179 -368 l 143 -368 m 151 0 l 103 0 l 338 1014 l 386 1014 l 246 407 l 363 407 l 664 694 l 728 694 l 400 381 l 557 0 l 503 0 l 351 363 l 235 363 l 151 0 z "},"Ĺ":{"ha":613,"x_min":119,"x_max":738,"o":"m 453 1108 l 442 1143 l 725 1276 l 738 1236 l 453 1108 m 600 0 l 119 0 l 344 972 l 394 972 l 181 46 l 611 46 l 600 0 z "},"ĺ":{"ha":271,"x_min":111,"x_max":643,"o":"m 111 0 l 346 1014 l 394 1014 l 160 0 l 111 0 m 358 1108 l 347 1143 l 631 1276 l 643 1236 l 358 1108 z "},"Ļ":{"ha":613,"x_min":119,"x_max":611,"o":"m 326 -101 l 374 -101 l 251 -368 l 215 -368 l 326 -101 m 600 0 l 119 0 l 344 972 l 394 972 l 181 46 l 611 46 l 600 0 z "},"ļ":{"ha":271,"x_min":-22,"x_max":394,"o":"m 89 -101 l 136 -101 l 14 -368 l -22 -368 l 89 -101 m 111 0 l 346 1014 l 394 1014 l 160 0 l 111 0 z "},"Ľ":{"ha":618,"x_min":119,"x_max":736,"o":"m 736 972 l 665 667 l 621 667 l 692 972 l 736 972 m 600 0 l 119 0 l 344 972 l 394 972 l 181 46 l 611 46 l 600 0 z "},"ľ":{"ha":279,"x_min":111,"x_max":518,"o":"m 518 972 l 447 667 l 403 667 l 474 972 l 518 972 m 111 0 l 346 1014 l 394 1014 l 160 0 l 111 0 z "},"Ł":{"ha":614,"x_min":104,"x_max":614,"o":"m 603 0 l 122 0 l 221 426 l 124 365 q 122 368 122 365 l 104 407 l 235 489 l 347 972 l 397 972 l 294 526 l 547 685 l 563 643 l 279 464 l 183 46 l 614 46 l 603 0 z "},"ł":{"ha":356,"x_min":113,"x_max":461,"o":"m 149 0 l 250 440 l 133 368 l 113 406 l 264 500 l 383 1014 l 432 1014 l 321 535 l 443 611 l 461 571 l 307 475 l 197 0 l 149 0 z "},"Ń":{"ha":857,"x_min":119,"x_max":963,"o":"m 571 1108 l 560 1143 l 843 1276 l 856 1236 l 571 1108 m 119 0 l 344 972 l 457 972 l 665 46 l 699 46 l 913 972 l 963 972 l 738 0 l 628 0 l 418 926 l 383 926 l 169 0 l 119 0 z "},"ń":{"ha":678,"x_min":101,"x_max":711,"o":"m 535 661 q 512 661 535 661 q 448 639 489 661 q 376 590 407 617 q 310 524 346 564 q 257 458 275 485 l 150 0 l 101 0 l 263 694 l 311 694 l 275 538 l 289 556 q 382 647 319 596 q 453 690 413 672 q 532 707 494 707 q 649 664 607 707 q 692 549 692 621 q 665 361 692 478 l 581 0 l 533 0 l 617 358 q 643 533 643 467 q 613 630 643 599 q 535 661 582 661 m 428 847 l 421 882 l 703 1014 l 711 972 l 428 847 z "},"Ņ":{"ha":857,"x_min":119,"x_max":963,"o":"m 390 -101 l 438 -101 l 315 -368 l 279 -368 l 390 -101 m 119 0 l 344 972 l 457 972 l 665 46 l 699 46 l 913 972 l 963 972 l 738 0 l 628 0 l 418 926 l 383 926 l 169 0 l 119 0 z "},"ņ":{"ha":678,"x_min":101,"x_max":692,"o":"m 275 538 q 532 707 411 707 q 649 664 607 707 q 692 549 692 621 q 665 361 692 478 l 581 0 l 533 0 l 617 358 q 643 533 643 467 q 524 661 643 661 q 449 640 489 661 q 375 589 408 619 q 272 479 307 526 l 257 458 l 150 0 l 101 0 l 263 694 l 311 694 l 275 538 m 201 -368 l 313 -101 l 360 -101 l 238 -368 l 201 -368 z "},"Ň":{"ha":857,"x_min":119,"x_max":963,"o":"m 908 1286 l 693 1108 l 669 1108 l 531 1286 l 579 1286 l 686 1149 l 853 1286 l 908 1286 m 119 0 l 344 972 l 457 972 l 665 46 l 699 46 l 913 972 l 963 972 l 738 0 l 628 0 l 418 926 l 383 926 l 169 0 l 119 0 z "},"ň":{"ha":678,"x_min":101,"x_max":747,"o":"m 275 538 q 532 707 411 707 q 649 664 607 707 q 692 549 692 621 q 665 361 692 478 l 581 0 l 533 0 l 617 358 q 643 533 643 467 q 524 661 643 661 q 449 640 489 661 q 375 589 408 619 q 272 479 307 526 l 257 458 l 150 0 l 101 0 l 263 694 l 311 694 l 275 538 m 536 826 l 517 826 l 397 1014 l 442 1014 l 533 868 l 693 1014 l 747 1014 l 536 826 z "},"Ŋ":{"ha":857,"x_min":119,"x_max":963,"o":"m 119 0 l 344 972 l 460 972 l 667 46 l 700 46 l 914 972 l 963 972 l 740 10 q 690 -154 713 -112 q 642 -208 667 -196 q 481 -237 586 -237 l 489 -192 q 625 -157 589 -192 q 689 0 661 -122 l 625 0 l 417 926 l 382 926 l 168 0 l 119 0 z "},"ŋ":{"ha":674,"x_min":101,"x_max":693,"o":"m 283 588 q 396 669 328 631 q 541 707 464 707 q 656 672 618 707 q 693 547 693 636 q 660 358 693 497 l 575 -7 q 494 -186 547 -126 q 307 -317 442 -246 l 299 -268 q 463 -148 418 -203 q 538 28 508 -93 l 615 358 q 646 549 646 492 q 617 632 646 607 q 526 657 588 657 q 404 626 465 657 q 308 565 343 596 l 272 535 l 147 0 l 101 0 l 264 694 l 311 694 l 283 588 z "},"Ō":{"ha":883,"x_min":169,"x_max":936,"o":"m 221 272 q 276 88 221 142 q 449 33 331 33 q 651 96 567 33 q 824 352 764 181 q 883 700 883 524 q 825 881 883 824 q 658 939 767 939 q 467 879 549 939 q 286 618 351 794 q 221 272 221 442 m 936 699 q 876 342 936 513 q 707 79 817 171 q 450 -12 597 -12 q 236 52 303 -12 q 169 283 169 117 q 228 615 169 449 q 396 883 288 782 q 648 985 504 985 q 864 915 792 985 q 936 699 936 846 m 519 1160 l 526 1196 l 904 1196 l 894 1160 l 519 1160 z "},"ō":{"ha":685,"x_min":138,"x_max":719,"o":"m 485 707 q 704 489 704 707 q 606 131 704 275 q 350 -12 507 -12 q 138 193 138 -12 q 238 558 138 410 q 485 707 338 707 m 350 32 q 569 165 485 32 q 654 489 654 297 q 612 615 654 568 q 485 663 569 663 q 272 524 356 663 q 188 193 188 386 q 350 32 188 32 m 360 899 l 368 935 l 719 935 l 710 899 l 360 899 z "},"Ŏ":{"ha":883,"x_min":169,"x_max":936,"o":"m 596 1279 q 592 1231 592 1258 q 615 1181 592 1204 q 696 1158 638 1158 q 800 1192 754 1158 q 860 1279 846 1225 l 901 1279 q 824 1159 882 1201 q 689 1117 767 1117 q 550 1232 550 1117 q 554 1279 550 1254 l 596 1279 m 221 272 q 276 88 221 142 q 449 33 331 33 q 651 96 567 33 q 824 352 764 181 q 883 700 883 524 q 825 881 883 824 q 658 939 767 939 q 467 879 549 939 q 286 618 351 794 q 221 272 221 442 m 936 699 q 876 342 936 513 q 707 79 817 171 q 450 -12 597 -12 q 236 52 303 -12 q 169 283 169 117 q 228 615 169 449 q 396 883 288 782 q 648 985 504 985 q 864 915 792 985 q 936 699 936 846 z "},"ŏ":{"ha":685,"x_min":138,"x_max":751,"o":"m 485 707 q 704 489 704 707 q 606 131 704 275 q 350 -12 507 -12 q 138 193 138 -12 q 238 558 138 410 q 485 707 338 707 m 350 32 q 569 165 485 32 q 654 489 654 297 q 612 615 654 568 q 485 663 569 663 q 272 524 356 663 q 188 193 188 386 q 350 32 188 32 m 442 1001 q 435 953 435 979 q 453 903 435 928 q 546 865 479 865 q 655 903 613 865 q 713 1001 697 940 l 751 1001 q 533 826 707 826 q 419 878 454 826 q 397 944 397 911 q 403 1001 397 976 l 442 1001 z "},"Ő":{"ha":883,"x_min":169,"x_max":1042,"o":"m 760 1100 l 754 1133 l 1031 1253 l 1042 1221 l 760 1100 m 511 1101 l 503 1133 l 785 1254 l 790 1221 l 511 1101 m 221 272 q 276 88 221 142 q 449 33 331 33 q 651 96 567 33 q 824 352 764 181 q 883 700 883 524 q 825 881 883 824 q 658 939 767 939 q 467 879 549 939 q 286 618 351 794 q 221 272 221 442 m 936 699 q 876 342 936 513 q 707 79 817 171 q 450 -12 597 -12 q 236 52 303 -12 q 169 283 169 117 q 228 615 169 449 q 396 883 288 782 q 648 985 504 985 q 864 915 792 985 q 936 699 936 846 z "},"ő":{"ha":685,"x_min":138,"x_max":847,"o":"m 485 707 q 704 489 704 707 q 606 131 704 275 q 350 -12 507 -12 q 138 193 138 -12 q 238 558 138 410 q 485 707 338 707 m 350 32 q 569 165 485 32 q 654 489 654 297 q 612 615 654 568 q 485 663 569 663 q 272 524 356 663 q 188 193 188 386 q 350 32 188 32 m 599 825 l 583 860 l 831 1006 l 847 969 l 599 825 m 357 825 l 342 860 l 588 1006 l 604 969 l 357 825 z "},"Œ":{"ha":1217,"x_min":160,"x_max":1378,"o":"m 424 -12 q 222 50 285 -12 q 160 238 160 113 q 194 479 160 332 q 362 859 256 733 q 658 985 468 985 q 861 972 736 985 l 1378 972 l 1368 919 l 899 919 l 803 526 l 1193 526 l 1183 474 l 793 476 l 693 53 l 1163 53 l 1149 -1 l 633 -1 q 424 -12 497 -12 m 435 40 q 643 53 511 40 l 849 922 q 647 932 764 932 q 389 823 478 932 q 246 482 300 714 q 211 239 211 336 q 263 91 211 142 q 435 40 315 40 z "},"œ":{"ha":1147,"x_min":132,"x_max":1189,"o":"m 1019 47 l 1060 50 l 1053 0 q 806 -12 903 -12 q 619 136 638 -12 q 514 23 579 58 q 342 -12 449 -12 q 183 27 235 -12 q 132 153 132 67 q 161 363 132 239 q 284 628 206 550 q 514 707 363 707 q 714 540 701 707 q 994 707 799 707 q 1189 517 1189 707 q 1168 372 1189 456 l 1156 325 l 692 328 q 668 172 668 233 q 703 74 668 110 q 827 38 739 38 q 1019 47 915 38 m 182 165 q 182 132 182 165 q 222 68 182 99 q 337 38 261 38 q 456 53 413 38 q 526 92 499 68 q 578 161 554 115 q 640 338 614 233 q 665 488 665 442 q 658 561 665 535 q 508 657 633 657 q 317 592 382 657 q 217 378 253 526 q 182 165 182 231 m 1115 372 q 1136 522 1136 456 q 983 657 1136 657 q 703 375 769 657 l 1115 372 z "},"Ŕ":{"ha":789,"x_min":119,"x_max":874,"o":"m 874 778 q 778 500 874 590 q 604 406 697 424 l 728 0 l 678 0 l 556 400 l 263 400 l 169 0 l 119 0 l 344 972 l 653 972 q 874 778 874 972 m 821 765 q 778 890 821 854 q 642 926 736 926 l 383 926 l 272 446 l 532 446 q 742 533 663 446 q 821 765 821 621 m 519 1108 l 508 1143 l 792 1276 l 804 1236 l 519 1108 z "},"ŕ":{"ha":422,"x_min":101,"x_max":578,"o":"m 101 0 l 264 694 l 311 694 l 288 589 q 561 708 426 676 l 550 660 q 322 564 461 638 l 276 540 l 151 0 l 101 0 m 294 847 l 288 882 l 569 1014 l 578 972 l 294 847 z "},"Ŗ":{"ha":789,"x_min":119,"x_max":874,"o":"m 258 -368 l 369 -101 l 417 -101 l 294 -368 l 258 -368 m 653 972 q 819 924 764 972 q 874 778 874 876 q 847 610 874 679 q 778 500 821 540 q 604 406 697 424 l 728 0 l 678 0 l 556 400 l 263 400 l 169 0 l 119 0 l 344 972 l 653 972 m 821 765 q 778 890 821 854 q 642 926 736 926 l 383 926 l 272 446 l 532 446 q 742 533 663 446 q 821 765 821 621 z "},"ŗ":{"ha":422,"x_min":-25,"x_max":561,"o":"m 101 0 l 264 694 l 311 694 l 288 589 q 561 708 426 676 l 550 660 q 322 564 461 638 l 276 540 l 151 0 l 101 0 m 86 -101 l 133 -101 l 11 -368 l -25 -368 l 86 -101 z "},"Ř":{"ha":789,"x_min":119,"x_max":874,"o":"m 839 1286 l 624 1108 l 600 1108 l 461 1286 l 510 1286 l 617 1149 l 783 1286 l 839 1286 m 874 778 q 778 500 874 590 q 604 406 697 424 l 728 0 l 678 0 l 556 400 l 263 400 l 169 0 l 119 0 l 344 972 l 653 972 q 874 778 874 972 m 821 765 q 778 890 821 854 q 642 926 736 926 l 383 926 l 272 446 l 532 446 q 742 533 663 446 q 821 765 821 621 z "},"ř":{"ha":422,"x_min":101,"x_max":632,"o":"m 101 0 l 264 694 l 311 694 l 288 589 q 561 708 426 676 l 550 660 q 322 564 461 638 l 276 540 l 151 0 l 101 0 m 421 826 l 401 826 l 282 1014 l 326 1014 l 418 868 l 578 1014 l 632 1014 l 421 826 z "},"Ś":{"ha":697,"x_min":83,"x_max":824,"o":"m 576 939 q 366 874 442 939 q 290 683 290 810 q 333 588 290 617 q 488 526 375 560 q 646 453 600 493 q 692 324 692 413 q 601 78 692 169 q 356 -12 510 -12 q 125 6 238 -12 l 83 11 l 93 57 q 375 33 257 33 q 566 112 493 33 q 639 322 639 190 q 604 422 639 392 q 458 483 569 451 q 292 554 346 514 q 239 683 239 594 q 333 908 239 831 q 586 985 426 985 q 789 963 678 985 l 824 956 l 815 914 q 576 939 674 939 m 500 1108 l 489 1143 l 772 1276 l 785 1236 l 500 1108 z "},"ś":{"ha":593,"x_min":75,"x_max":689,"o":"m 653 644 q 440 663 529 663 q 293 610 350 663 q 236 483 236 557 q 265 422 236 442 q 392 380 294 401 q 533 330 490 358 q 576 233 576 301 q 492 51 576 115 q 282 -12 408 -12 q 107 4 203 -12 l 75 10 l 85 54 q 300 32 210 32 q 458 81 390 32 q 526 224 526 129 q 494 296 526 276 q 364 337 461 315 q 226 385 267 358 q 186 475 186 413 q 260 640 186 574 q 450 707 333 707 q 631 692 526 707 l 665 688 l 653 644 m 406 847 l 399 882 l 681 1014 l 689 972 l 406 847 z "},"Ŝ":{"ha":697,"x_min":83,"x_max":824,"o":"m 576 939 q 366 874 442 939 q 290 683 290 810 q 333 588 290 617 q 488 526 375 560 q 646 453 600 493 q 692 324 692 413 q 601 78 692 169 q 356 -12 510 -12 q 125 6 238 -12 l 83 11 l 93 57 q 375 33 257 33 q 566 112 493 33 q 639 322 639 190 q 604 422 639 392 q 458 483 569 451 q 292 554 346 514 q 239 683 239 594 q 333 908 239 831 q 586 985 426 985 q 789 963 678 985 l 824 956 l 815 914 q 576 939 674 939 m 421 1115 l 638 1293 l 657 1293 l 792 1115 l 744 1115 l 643 1250 l 478 1115 l 421 1115 z "},"ŝ":{"ha":593,"x_min":75,"x_max":671,"o":"m 653 644 q 440 663 529 663 q 293 610 350 663 q 236 483 236 557 q 265 422 236 442 q 392 380 294 401 q 533 330 490 358 q 576 233 576 301 q 492 51 576 115 q 282 -12 408 -12 q 107 4 203 -12 l 75 10 l 85 54 q 300 32 210 32 q 458 81 390 32 q 526 224 526 129 q 494 296 526 276 q 364 337 461 315 q 226 385 267 358 q 186 475 186 413 q 260 640 186 574 q 450 707 333 707 q 631 692 526 707 l 665 688 l 653 644 m 328 826 l 531 1014 l 550 1014 l 671 826 l 624 826 l 535 967 l 382 826 l 328 826 z "},"Ş":{"ha":697,"x_min":83,"x_max":824,"o":"m 358 -74 q 468 -146 468 -74 q 465 -172 468 -158 q 333 -276 442 -276 l 228 -271 l 239 -228 q 340 -233 296 -233 q 418 -172 403 -233 q 421 -153 421 -162 q 369 -115 421 -115 l 299 -115 l 322 -12 q 118 6 235 -10 l 83 11 l 93 57 q 375 33 257 33 q 566 112 493 33 q 639 322 639 190 q 604 422 639 392 q 458 483 569 451 q 292 554 346 514 q 239 683 239 594 q 333 908 239 831 q 586 985 426 985 q 789 963 678 985 l 824 956 l 815 914 q 576 939 674 939 q 366 874 442 939 q 290 683 290 810 q 333 588 290 617 q 488 526 375 560 q 646 453 600 493 q 692 324 692 413 q 603 82 692 172 q 367 -12 515 -8 l 351 -74 l 358 -74 z "},"ş":{"ha":592,"x_min":74,"x_max":664,"o":"m 290 -74 q 400 -146 400 -74 q 397 -172 400 -158 q 265 -276 374 -276 l 160 -271 l 171 -228 q 272 -233 228 -233 q 350 -172 335 -233 q 353 -153 353 -162 q 301 -115 353 -115 l 231 -115 l 254 -11 q 100 6 169 -8 l 74 10 l 83 54 q 299 32 208 32 q 457 81 389 32 q 525 224 525 129 q 492 296 525 276 q 363 337 460 315 q 225 385 265 358 q 185 475 185 413 q 258 640 185 574 q 449 707 332 707 q 629 692 525 707 l 664 688 l 651 644 q 438 663 528 663 q 292 610 349 663 q 235 483 235 557 q 264 422 235 442 q 391 380 293 401 q 532 330 489 358 q 575 233 575 301 q 497 56 575 119 q 299 -11 419 -7 l 283 -74 l 290 -74 z "},"Š":{"ha":697,"x_min":83,"x_max":847,"o":"m 847 1293 l 632 1115 l 608 1115 l 469 1293 l 518 1293 l 625 1156 l 792 1293 l 847 1293 m 576 939 q 366 874 442 939 q 290 683 290 810 q 333 588 290 617 q 488 526 375 560 q 646 453 600 493 q 692 324 692 413 q 601 78 692 169 q 356 -12 510 -12 q 125 6 238 -12 l 83 11 l 93 57 q 375 33 257 33 q 566 112 493 33 q 639 322 639 190 q 604 422 639 392 q 458 483 569 451 q 292 554 346 514 q 239 683 239 594 q 333 908 239 831 q 586 985 426 985 q 789 963 678 985 l 824 956 l 815 914 q 576 939 674 939 z "},"š":{"ha":593,"x_min":75,"x_max":717,"o":"m 653 644 q 440 663 529 663 q 293 610 350 663 q 236 483 236 557 q 265 422 236 442 q 392 380 294 401 q 533 330 490 358 q 576 233 576 301 q 492 51 576 115 q 282 -12 408 -12 q 107 4 203 -12 l 75 10 l 85 54 q 300 32 210 32 q 458 81 390 32 q 526 224 526 129 q 494 296 526 276 q 364 337 461 315 q 226 385 267 358 q 186 475 186 413 q 260 640 186 574 q 450 707 333 707 q 631 692 526 707 l 665 688 l 653 644 m 506 826 l 486 826 l 367 1014 l 411 1014 l 503 868 l 663 1014 l 717 1014 l 506 826 z "},"Ţ":{"ha":663,"x_min":208,"x_max":869,"o":"m 339 -74 q 449 -146 449 -74 q 446 -172 449 -158 q 314 -276 422 -276 l 208 -271 l 219 -228 q 321 -233 276 -233 q 399 -172 383 -233 q 401 -153 401 -162 q 350 -115 401 -115 l 279 -115 l 307 0 l 304 0 l 518 926 l 228 926 l 239 972 l 869 972 l 858 926 l 568 926 l 354 0 l 350 0 l 332 -74 l 339 -74 z "},"ţ":{"ha":432,"x_min":158,"x_max":572,"o":"m 289 -74 q 399 -146 399 -74 q 396 -172 399 -158 q 264 -276 372 -276 l 158 -271 l 169 -228 q 271 -233 226 -233 q 349 -172 333 -233 q 351 -153 351 -162 q 300 -115 351 -115 l 229 -115 l 254 -7 q 169 107 169 11 q 193 253 169 158 l 286 650 l 185 650 l 196 694 l 299 694 l 353 919 l 401 919 l 346 694 l 572 694 l 561 650 l 335 650 l 242 253 q 221 114 221 164 q 310 32 221 32 l 426 42 l 424 -1 q 303 -12 353 -12 l 297 -12 l 282 -74 l 289 -74 z "},"Ť":{"ha":663,"x_min":228,"x_max":869,"o":"m 800 1286 l 585 1108 l 561 1108 l 422 1286 l 471 1286 l 578 1149 l 744 1286 l 800 1286 m 228 926 l 239 972 l 869 972 l 858 926 l 568 926 l 354 0 l 304 0 l 518 926 l 228 926 z "},"ť":{"ha":503,"x_min":169,"x_max":732,"o":"m 732 972 l 661 667 l 617 667 l 688 972 l 732 972 m 221 114 q 310 32 221 32 l 426 42 l 424 -1 q 303 -12 353 -12 q 169 107 169 -12 q 193 253 169 158 l 286 650 l 185 650 l 196 694 l 299 694 l 353 919 l 401 919 l 346 694 l 572 694 l 561 650 l 335 650 l 242 253 q 221 114 221 164 z "},"Ŧ":{"ha":669,"x_min":174,"x_max":872,"o":"m 231 926 l 242 972 l 872 972 l 861 926 l 571 926 l 474 504 l 714 504 l 699 454 l 461 454 l 357 0 l 307 0 l 411 454 l 174 454 l 186 504 l 424 504 l 521 926 l 231 926 z "},"ŧ":{"ha":439,"x_min":154,"x_max":576,"o":"m 225 114 q 314 32 225 32 l 431 42 l 428 -1 q 307 -12 357 -12 q 174 107 174 -12 q 197 253 174 158 l 232 404 l 154 404 l 165 449 l 243 449 l 290 650 l 189 650 l 200 694 l 303 694 l 357 919 l 406 919 l 350 694 l 576 694 l 565 650 l 339 650 l 292 449 l 517 449 l 504 404 l 281 404 l 246 253 q 225 114 225 164 z "},"Ũ":{"ha":824,"x_min":165,"x_max":935,"o":"m 901 1215 q 780 1136 814 1136 q 676 1181 746 1136 q 590 1225 606 1225 q 489 1167 565 1225 l 464 1149 l 463 1188 q 591 1267 554 1267 q 697 1223 628 1267 q 782 1179 767 1179 q 874 1232 808 1179 l 896 1250 l 901 1215 m 215 181 q 435 35 215 35 q 628 94 560 35 q 724 275 696 153 l 885 972 l 935 972 l 774 274 q 660 58 740 129 q 444 -12 581 -12 q 165 179 165 -12 q 179 288 165 232 l 338 972 l 388 972 l 229 288 q 215 181 215 229 z "},"ũ":{"ha":678,"x_min":146,"x_max":743,"o":"m 633 875 q 542 910 608 875 q 461 946 475 946 q 372 899 436 946 l 351 883 l 349 926 q 471 990 429 990 q 561 955 497 990 q 639 919 625 919 q 718 961 665 919 l 736 976 l 743 935 q 633 875 674 875 m 563 157 q 306 -12 426 -12 q 189 31 232 -12 q 146 145 146 74 q 172 333 146 217 l 257 694 l 304 694 l 221 336 q 194 163 194 228 q 226 65 194 97 q 303 33 258 33 q 389 54 349 33 q 461 106 429 75 q 565 215 531 168 l 581 236 l 688 694 l 736 694 l 575 0 l 526 0 l 563 157 z "},"Ū":{"ha":824,"x_min":165,"x_max":935,"o":"m 215 181 q 435 35 215 35 q 628 94 560 35 q 724 275 696 153 l 885 972 l 935 972 l 774 274 q 660 58 740 129 q 444 -12 581 -12 q 165 179 165 -12 q 179 288 165 232 l 338 972 l 388 972 l 229 288 q 215 181 215 229 m 485 1160 l 492 1196 l 869 1196 l 860 1160 l 485 1160 z "},"ū":{"ha":678,"x_min":146,"x_max":736,"o":"m 563 157 q 306 -12 426 -12 q 189 31 232 -12 q 146 145 146 74 q 172 333 146 217 l 257 694 l 304 694 l 221 336 q 194 163 194 228 q 226 65 194 97 q 303 33 258 33 q 389 54 349 33 q 461 106 429 75 q 565 215 531 168 l 581 236 l 688 694 l 736 694 l 575 0 l 526 0 l 563 157 m 353 899 l 361 935 l 713 935 l 703 899 l 353 899 z "},"Ŭ":{"ha":824,"x_min":165,"x_max":935,"o":"m 561 1279 q 557 1231 557 1258 q 580 1181 557 1204 q 661 1158 603 1158 q 765 1192 719 1158 q 825 1279 811 1225 l 867 1279 q 790 1159 847 1201 q 654 1117 732 1117 q 515 1232 515 1117 q 519 1279 515 1254 l 561 1279 m 229 288 q 215 181 215 229 q 435 35 215 35 q 628 94 560 35 q 724 275 696 153 l 885 972 l 935 972 l 774 274 q 660 58 740 129 q 444 -12 581 -12 q 165 179 165 -12 q 179 288 165 232 l 338 972 l 388 972 l 229 288 z "},"ŭ":{"ha":678,"x_min":146,"x_max":736,"o":"m 563 157 q 306 -12 426 -12 q 189 31 232 -12 q 146 145 146 74 q 172 333 146 217 l 257 694 l 304 694 l 221 336 q 194 163 194 228 q 226 65 194 97 q 303 33 258 33 q 389 54 349 33 q 461 106 429 75 q 565 215 531 168 l 581 236 l 688 694 l 736 694 l 575 0 l 526 0 l 563 157 m 424 1001 q 417 953 417 979 q 433 903 417 928 q 528 865 461 865 q 637 903 594 865 q 694 1001 679 940 l 733 1001 q 515 826 689 826 q 401 878 436 826 q 379 944 379 911 q 385 1001 379 976 l 424 1001 z "},"Ů":{"ha":824,"x_min":165,"x_max":935,"o":"m 657 1051 q 575 1085 600 1051 q 561 1129 561 1106 q 567 1174 561 1153 q 717 1297 600 1297 q 797 1267 772 1297 q 813 1222 813 1247 q 807 1174 813 1197 q 657 1051 776 1051 m 774 1199 q 707 1257 774 1257 q 603 1174 624 1257 q 600 1150 600 1161 q 667 1092 600 1092 q 771 1174 751 1092 q 774 1199 774 1188 m 215 181 q 435 35 215 35 q 628 94 560 35 q 724 275 696 153 l 885 972 l 935 972 l 774 274 q 660 58 740 129 q 444 -12 581 -12 q 165 179 165 -12 q 179 288 165 232 l 338 972 l 388 972 l 229 288 q 215 181 215 229 z "},"ů":{"ha":678,"x_min":146,"x_max":736,"o":"m 500 772 q 408 864 408 772 q 456 983 408 940 q 561 1025 503 1025 q 651 928 651 1025 q 607 817 651 863 q 500 772 563 772 m 450 899 q 447 872 447 888 q 462 835 447 857 q 510 813 476 813 q 572 838 544 813 q 613 919 613 872 q 599 960 613 939 q 551 982 585 982 q 487 958 517 982 q 450 899 457 933 m 563 157 q 306 -12 426 -12 q 189 31 232 -12 q 146 145 146 74 q 172 333 146 217 l 257 694 l 304 694 l 221 336 q 194 163 194 228 q 226 65 194 97 q 303 33 258 33 q 389 54 349 33 q 461 106 429 75 q 565 215 531 168 l 581 236 l 688 694 l 736 694 l 575 0 l 526 0 l 563 157 z "},"Ű":{"ha":824,"x_min":165,"x_max":990,"o":"m 708 1063 l 703 1096 l 979 1215 l 990 1183 l 708 1063 m 460 1064 l 451 1096 l 733 1217 l 739 1183 l 460 1064 m 215 181 q 435 35 215 35 q 628 94 560 35 q 724 275 696 153 l 885 972 l 935 972 l 774 274 q 660 58 740 129 q 444 -12 581 -12 q 165 179 165 -12 q 179 288 165 232 l 338 972 l 388 972 l 229 288 q 215 181 215 229 z "},"ű":{"ha":678,"x_min":146,"x_max":875,"o":"m 626 825 l 611 860 l 858 1006 l 875 969 l 626 825 m 385 825 l 369 860 l 615 1006 l 632 969 l 385 825 m 563 157 q 306 -12 426 -12 q 189 31 232 -12 q 146 145 146 74 q 172 333 146 217 l 257 694 l 304 694 l 221 336 q 194 163 194 228 q 226 65 194 97 q 303 33 258 33 q 389 54 349 33 q 461 106 429 75 q 565 215 531 168 l 581 236 l 688 694 l 736 694 l 575 0 l 526 0 l 563 157 z "},"Ų":{"ha":824,"x_min":165,"x_max":935,"o":"m 215 181 q 435 35 215 35 q 628 94 560 35 q 724 275 696 153 l 885 972 l 935 972 l 774 274 q 682 79 744 149 q 508 -7 619 10 q 417 -104 460 -50 q 375 -196 375 -158 q 419 -229 375 -229 l 497 -219 l 492 -264 q 406 -275 442 -275 q 319 -200 319 -275 q 444 -12 319 -125 l 432 -12 q 236 35 307 -12 q 165 179 165 83 q 179 288 165 232 l 338 972 l 388 972 l 229 288 q 215 181 215 229 z "},"ų":{"ha":678,"x_min":146,"x_max":736,"o":"m 563 157 q 306 -12 426 -12 q 189 31 232 -12 q 146 145 146 74 q 172 333 146 217 l 257 694 l 304 694 l 221 336 q 194 163 194 228 q 226 65 194 97 q 303 33 258 33 q 389 54 349 33 q 461 106 429 75 q 565 215 531 168 l 581 236 l 688 694 l 736 694 l 575 0 q 478 -97 526 -39 q 429 -196 429 -156 q 474 -229 429 -229 l 551 -219 l 546 -264 q 460 -275 496 -275 q 374 -200 374 -275 q 426 -91 374 -153 q 529 13 478 -29 l 563 157 z "},"Ŵ":{"ha":1118,"x_min":238,"x_max":1285,"o":"m 614 1108 l 831 1286 l 850 1286 l 985 1108 l 938 1108 l 836 1243 l 671 1108 l 614 1108 m 271 972 l 321 972 l 286 46 l 335 46 l 749 958 l 801 958 l 789 46 l 835 46 l 1235 972 l 1285 972 l 865 0 l 742 0 l 756 863 l 364 0 l 238 0 l 271 972 z "},"ŵ":{"ha":986,"x_min":208,"x_max":1096,"o":"m 208 694 l 257 694 l 265 44 l 288 44 l 615 681 l 678 681 l 706 44 l 729 44 l 1044 694 l 1096 694 l 760 0 l 657 0 l 633 621 l 318 0 l 218 0 l 208 694 m 488 826 l 690 1014 l 710 1014 l 831 826 l 783 826 l 694 967 l 542 826 l 488 826 z "},"Ŷ":{"ha":674,"x_min":247,"x_max":871,"o":"m 399 1108 l 615 1286 l 635 1286 l 769 1108 l 722 1108 l 621 1243 l 456 1108 l 399 1108 m 871 972 l 453 418 l 356 0 l 306 0 l 404 428 l 247 972 l 297 972 l 440 471 l 815 972 l 871 972 z "},"ŷ":{"ha":622,"x_min":149,"x_max":739,"o":"m 204 694 l 254 694 l 286 44 l 342 44 l 686 694 l 739 694 l 201 -317 l 149 -317 l 319 0 l 239 0 l 204 694 m 331 826 l 533 1014 l 553 1014 l 674 826 l 626 826 l 538 967 l 385 826 l 331 826 z "},"Ÿ":{"ha":674,"x_min":247,"x_max":871,"o":"m 436 1153 l 456 1244 l 497 1244 l 474 1153 l 436 1153 m 685 1153 l 707 1244 l 747 1244 l 725 1153 l 685 1153 m 871 972 l 453 418 l 356 0 l 306 0 l 404 428 l 247 972 l 297 972 l 440 471 l 815 972 l 871 972 z "},"Ź":{"ha":692,"x_min":54,"x_max":860,"o":"m 485 1108 l 474 1143 l 757 1276 l 769 1236 l 485 1108 m 272 926 l 283 972 l 860 972 l 835 864 l 124 81 l 115 46 l 642 46 l 631 0 l 54 0 l 78 103 l 789 886 l 799 926 l 272 926 z "},"ź":{"ha":583,"x_min":57,"x_max":688,"o":"m 217 694 l 688 694 l 681 650 l 125 44 l 538 44 l 528 0 l 57 0 l 61 44 l 617 650 l 206 650 l 217 694 m 378 847 l 371 882 l 653 1014 l 661 972 l 378 847 z "},"Ż":{"ha":692,"x_min":54,"x_max":860,"o":"m 571 1207 l 588 1288 l 626 1288 l 611 1207 l 571 1207 m 272 926 l 283 972 l 860 972 l 835 864 l 124 81 l 115 46 l 642 46 l 631 0 l 54 0 l 78 103 l 789 886 l 799 926 l 272 926 z "},"ż":{"ha":583,"x_min":57,"x_max":688,"o":"m 217 694 l 688 694 l 681 650 l 125 44 l 538 44 l 528 0 l 57 0 l 61 44 l 617 650 l 206 650 l 217 694 m 453 861 l 472 942 l 513 942 l 494 861 l 453 861 z "},"Ž":{"ha":692,"x_min":54,"x_max":860,"o":"m 819 1285 l 604 1107 l 581 1107 l 442 1285 l 490 1285 l 597 1147 l 764 1285 l 819 1285 m 272 926 l 283 972 l 860 972 l 835 864 l 124 81 l 115 46 l 642 46 l 631 0 l 54 0 l 78 103 l 789 886 l 799 926 l 272 926 z "},"ž":{"ha":583,"x_min":57,"x_max":688,"o":"m 474 826 l 454 826 l 335 1014 l 379 1014 l 471 868 l 631 1014 l 685 1014 l 474 826 m 206 650 l 217 694 l 688 694 l 681 650 l 125 44 l 538 44 l 528 0 l 57 0 l 61 44 l 617 650 l 206 650 z "},"ƒ":{"ha":778,"x_min":44,"x_max":854,"o":"m 135 -286 q 233 -241 194 -286 q 297 -87 271 -196 l 435 485 l 278 485 l 288 535 l 446 535 l 469 633 q 565 867 510 801 q 710 933 619 933 l 854 924 l 842 875 q 699 882 738 882 q 589 822 626 882 q 513 607 551 763 l 494 535 l 735 535 l 722 485 l 483 485 l 344 -97 q 259 -281 314 -225 q 122 -337 204 -337 l 44 -331 l 57 -282 q 135 -286 99 -286 z "},"Ǻ":{"ha":772,"x_min":44,"x_max":851,"o":"m 511 1007 q 518 1049 511 1025 q 668 1172 551 1172 q 749 1142 724 1172 q 764 1097 764 1122 q 758 1049 764 1072 q 685 944 739 975 l 736 0 l 686 0 l 669 300 l 254 300 l 96 0 l 44 0 l 544 943 q 511 1007 511 964 m 588 926 l 279 344 l 667 344 l 638 926 l 588 926 m 725 1074 q 658 1132 725 1132 q 554 1049 575 1132 q 551 1022 551 1035 q 583 972 551 985 l 657 972 q 722 1049 707 989 q 725 1074 725 1063 m 568 1236 l 561 1271 l 843 1403 l 851 1361 l 568 1236 z "},"ǻ":{"ha":669,"x_min":132,"x_max":744,"o":"m 461 1076 l 453 1118 l 735 1250 l 744 1201 l 461 1076 m 299 -12 q 132 164 132 -12 q 171 408 132 286 q 292 619 210 531 q 479 707 374 707 q 679 686 550 707 l 722 679 l 617 226 q 582 39 601 163 l 576 1 l 531 -1 q 561 175 554 143 q 546 155 556 168 q 506 110 536 142 q 447 53 476 78 q 376 8 417 28 q 299 -12 335 -12 m 665 642 q 476 663 564 663 q 317 578 388 663 q 215 383 247 494 q 183 164 183 272 q 213 66 183 99 q 308 33 242 33 q 513 175 383 33 q 558 231 542 207 l 575 253 l 665 642 m 507 772 q 415 864 415 772 q 463 983 415 940 q 568 1025 510 1025 q 658 928 658 1025 q 614 817 658 863 q 507 772 569 772 m 457 899 q 454 872 454 888 q 469 835 454 857 q 517 813 483 813 q 581 838 551 813 q 619 919 619 872 q 606 960 619 939 q 558 982 592 982 q 494 958 524 982 q 457 899 464 933 z "},"Ǽ":{"ha":1107,"x_min":44,"x_max":1268,"o":"m 517 0 l 585 299 l 251 299 l 93 0 l 44 0 l 558 972 l 1268 972 l 1260 926 l 783 929 l 685 522 l 1083 522 l 1075 476 l 676 476 l 575 46 l 1049 46 l 1040 0 l 517 0 m 581 926 l 274 343 l 594 343 l 736 926 l 581 926 m 808 1108 l 797 1143 l 1081 1276 l 1093 1236 l 808 1108 z "},"ǽ":{"ha":1072,"x_min":94,"x_max":1113,"o":"m 567 68 q 229 -12 363 -12 q 96 131 96 -12 q 101 192 96 158 q 184 333 119 289 q 365 393 249 376 q 585 418 481 410 q 613 535 613 513 q 610 573 613 558 q 600 610 608 588 q 503 654 581 654 q 294 644 439 654 l 254 642 l 263 693 q 514 707 410 707 q 619 672 578 707 q 663 575 661 638 q 922 707 753 707 q 1113 518 1113 707 q 1093 374 1113 447 l 1081 325 l 622 328 q 601 172 601 235 q 746 38 601 38 q 950 47 846 38 l 989 50 l 979 0 q 735 -12 829 -12 q 567 68 607 -12 m 151 139 q 240 38 151 38 q 554 113 350 38 q 548 197 544 164 q 552 239 551 229 q 558 273 553 249 q 564 303 563 297 q 578 369 567 338 q 331 338 400 350 q 218 292 261 326 q 158 192 175 258 q 151 139 151 164 m 1040 372 q 1063 519 1063 453 q 911 657 1063 657 q 737 590 807 657 q 632 375 667 524 l 1040 372 m 639 847 l 632 882 l 914 1014 l 922 972 l 639 847 z "},"Ǿ":{"ha":886,"x_min":111,"x_max":990,"o":"m 236 53 q 171 283 171 118 q 230 615 171 449 q 397 883 289 782 q 637 985 506 985 q 838 936 768 985 l 949 1099 l 990 1079 l 872 907 q 938 699 938 835 q 878 342 938 513 q 708 79 818 171 q 469 -12 599 -12 q 271 26 339 -12 l 149 -153 l 111 -131 l 236 53 m 810 894 q 650 939 750 939 q 468 879 550 939 q 288 618 353 794 q 222 272 222 442 q 267 99 222 156 l 810 894 m 300 69 q 462 33 356 33 q 653 96 568 33 q 825 352 765 181 q 885 700 885 524 q 842 863 885 806 l 569 461 l 300 69 m 614 1101 l 601 1143 l 885 1276 l 899 1229 l 614 1101 z "},"ǿ":{"ha":685,"x_min":94,"x_max":746,"o":"m 485 707 q 610 679 558 707 l 708 839 l 746 822 l 642 657 q 704 489 704 603 q 606 131 704 275 q 350 -12 507 -12 q 235 8 281 -12 l 132 -157 l 94 -142 l 201 28 q 138 193 138 78 q 238 558 138 410 q 485 707 338 707 m 485 663 q 272 524 356 663 q 188 193 188 386 q 229 72 188 111 l 583 638 q 485 663 540 663 m 350 32 q 569 165 485 32 q 654 489 654 297 q 614 613 654 565 l 439 336 l 261 50 q 350 32 296 32 m 424 847 l 417 882 l 699 1014 l 707 972 l 424 847 z "},"Ș":{"ha":697,"x_min":83,"x_max":824,"o":"m 322 -101 l 369 -101 l 247 -368 l 211 -368 l 322 -101 m 576 939 q 366 874 442 939 q 290 683 290 810 q 333 588 290 617 q 488 526 375 560 q 646 453 600 493 q 692 324 692 413 q 601 78 692 169 q 356 -12 510 -12 q 125 6 238 -12 l 83 11 l 93 57 q 375 33 257 33 q 566 112 493 33 q 639 322 639 190 q 604 422 639 392 q 458 483 569 451 q 292 554 346 514 q 239 683 239 594 q 333 908 239 831 q 586 985 426 985 q 789 963 678 985 l 824 956 l 815 914 q 576 939 674 939 z "},"ș":{"ha":592,"x_min":74,"x_max":664,"o":"m 651 644 q 438 663 528 663 q 292 610 349 663 q 235 483 235 557 q 264 422 235 442 q 391 380 293 401 q 532 330 489 358 q 575 233 575 301 q 491 51 575 115 q 281 -12 407 -12 q 106 4 201 -12 l 74 10 l 83 54 q 299 32 208 32 q 457 81 389 32 q 525 224 525 129 q 492 296 525 276 q 363 337 460 315 q 225 385 265 358 q 185 475 185 413 q 258 640 185 574 q 449 707 332 707 q 629 692 525 707 l 664 688 l 651 644 m 254 -101 l 301 -101 l 179 -368 l 143 -368 l 254 -101 z "},"Ț":{"ha":663,"x_min":176,"x_max":869,"o":"m 288 -101 l 335 -101 l 213 -368 l 176 -368 l 288 -101 m 228 926 l 239 972 l 869 972 l 858 926 l 568 926 l 354 0 l 304 0 l 518 926 l 228 926 z "},"ț":{"ha":432,"x_min":111,"x_max":572,"o":"m 221 114 q 310 32 221 32 l 426 42 l 424 -1 q 303 -12 353 -12 q 169 107 169 -12 q 193 253 169 158 l 286 650 l 185 650 l 196 694 l 299 694 l 353 919 l 401 919 l 346 694 l 572 694 l 561 650 l 335 650 l 242 253 q 221 114 221 164 m 222 -101 l 269 -101 l 147 -368 l 111 -368 l 222 -101 z "},"ˆ":{"ha":1099,"x_min":563,"x_max":906,"o":"m 563 826 l 765 1014 l 785 1014 l 906 826 l 858 826 l 769 967 l 617 826 l 563 826 z "},"ˇ":{"ha":1099,"x_min":603,"x_max":953,"o":"m 742 826 l 722 826 l 603 1014 l 647 1014 l 739 868 l 899 1014 l 953 1014 l 742 826 z "},"˘":{"ha":589,"x_min":347,"x_max":703,"o":"m 393 1001 q 386 953 386 979 q 403 903 386 928 q 497 865 431 865 q 606 903 564 865 q 664 1001 649 940 l 703 1001 q 485 826 658 826 q 371 878 406 826 q 349 944 349 911 q 354 1001 349 976 l 393 1001 z "},"˙":{"ha":283,"x_min":322,"x_max":382,"o":"m 322 861 l 342 942 l 382 942 l 364 861 l 322 861 z "},"˚":{"ha":1099,"x_min":440,"x_max":685,"o":"m 533 772 q 442 864 442 772 q 489 983 442 940 q 594 1025 536 1025 q 685 928 685 1025 q 640 817 685 863 q 533 772 596 772 m 483 899 q 481 872 481 888 q 495 835 481 857 q 544 813 510 813 q 606 838 578 813 q 646 919 646 872 q 632 960 646 939 q 584 982 618 982 q 520 958 550 982 q 483 899 490 933 z "},"˛":{"ha":572,"x_min":174,"x_max":375,"o":"m 260 -275 q 174 -200 174 -275 q 225 -91 174 -153 q 329 14 276 -29 l 375 4 q 278 -96 326 -36 q 229 -196 229 -156 q 274 -229 229 -229 l 351 -219 l 346 -264 q 260 -275 296 -275 z "},"˜":{"ha":575,"x_min":325,"x_max":719,"o":"m 610 875 q 518 910 585 875 q 436 946 451 946 q 349 899 413 946 l 328 883 l 325 926 q 447 990 406 990 q 538 955 474 990 q 615 919 601 919 q 694 961 642 919 l 713 976 l 719 935 q 610 875 650 875 z "},"˝":{"ha":904,"x_min":399,"x_max":904,"o":"m 656 825 l 640 860 l 888 1006 l 904 969 l 656 825 m 414 825 l 399 860 l 644 1006 l 661 969 l 414 825 z "},"π":{"ha":778,"x_min":124,"x_max":826,"o":"m 624 214 l 624 650 l 340 650 l 300 0 l 250 0 l 292 649 q 139 636 185 649 l 124 632 l 124 676 q 314 694 201 694 l 625 694 q 801 711 726 694 l 826 717 l 826 672 q 672 651 783 654 l 672 214 q 700 76 672 108 q 810 44 728 44 l 810 0 q 663 44 703 0 q 624 214 624 88 z "},"Ẁ":{"ha":1118,"x_min":238,"x_max":1285,"o":"m 697 1274 l 919 1139 l 899 1108 l 674 1236 l 697 1274 m 271 972 l 321 972 l 286 46 l 335 46 l 749 958 l 801 958 l 789 46 l 835 46 l 1235 972 l 1285 972 l 865 0 l 742 0 l 756 863 l 364 0 l 238 0 l 271 972 z "},"ẁ":{"ha":986,"x_min":208,"x_max":1096,"o":"m 519 1001 l 742 869 l 717 839 l 494 967 l 519 1001 m 208 694 l 257 694 l 265 44 l 288 44 l 615 681 l 678 681 l 706 44 l 729 44 l 1044 694 l 1096 694 l 760 0 l 657 0 l 633 621 l 318 0 l 218 0 l 208 694 z "},"Ẃ":{"ha":1118,"x_min":238,"x_max":1285,"o":"m 704 1108 l 693 1143 l 976 1276 l 989 1236 l 704 1108 m 271 972 l 321 972 l 286 46 l 335 46 l 749 958 l 801 958 l 789 46 l 835 46 l 1235 972 l 1285 972 l 865 0 l 742 0 l 756 863 l 364 0 l 238 0 l 271 972 z "},"ẃ":{"ha":986,"x_min":208,"x_max":1096,"o":"m 208 694 l 257 694 l 265 44 l 288 44 l 615 681 l 678 681 l 706 44 l 729 44 l 1044 694 l 1096 694 l 760 0 l 657 0 l 633 621 l 318 0 l 218 0 l 208 694 m 569 847 l 563 882 l 844 1014 l 853 972 l 569 847 z "},"Ẅ":{"ha":1118,"x_min":238,"x_max":1285,"o":"m 667 1154 l 686 1246 l 728 1246 l 704 1154 l 667 1154 m 915 1154 l 938 1246 l 978 1246 l 956 1154 l 915 1154 m 271 972 l 321 972 l 286 46 l 335 46 l 749 958 l 801 958 l 789 46 l 835 46 l 1235 972 l 1285 972 l 865 0 l 742 0 l 756 863 l 364 0 l 238 0 l 271 972 z "},"ẅ":{"ha":986,"x_min":208,"x_max":1096,"o":"m 208 694 l 257 694 l 265 44 l 288 44 l 615 681 l 678 681 l 706 44 l 729 44 l 1044 694 l 1096 694 l 760 0 l 657 0 l 633 621 l 318 0 l 218 0 l 208 694 m 533 879 l 554 969 l 594 969 l 574 879 l 533 879 m 776 879 l 794 969 l 835 969 l 814 879 l 776 879 z "},"ẫ":{"ha":669,"x_min":132,"x_max":801,"o":"m 299 -12 q 132 164 132 -12 q 171 408 132 286 q 292 619 210 531 q 479 707 374 707 q 679 686 550 707 l 722 679 l 617 226 q 582 39 601 163 l 576 1 l 531 -1 q 561 175 554 143 q 546 155 556 168 q 506 110 536 142 q 447 53 476 78 q 376 8 417 28 q 299 -12 335 -12 m 665 642 q 476 663 564 663 q 317 578 388 663 q 215 383 247 494 q 183 164 183 272 q 213 66 183 99 q 308 33 242 33 q 513 175 383 33 q 558 231 542 207 l 575 253 l 665 642 m 692 1014 q 600 1049 667 1014 q 519 1085 533 1085 q 431 1038 494 1085 l 410 1022 l 407 1065 q 529 1129 488 1129 q 619 1094 556 1129 q 697 1058 683 1058 q 776 1100 724 1058 l 794 1115 l 801 1074 q 692 1014 732 1014 m 365 785 l 568 972 l 588 972 l 708 785 l 661 785 l 572 925 l 419 785 l 365 785 z "},"Ằ":{"ha":772,"x_min":44,"x_max":853,"o":"m 613 1460 l 835 1328 l 810 1297 l 588 1425 l 613 1460 m 44 0 l 560 972 l 683 972 l 736 0 l 686 0 l 669 300 l 254 300 l 96 0 l 44 0 m 588 926 l 279 344 l 667 344 l 638 926 l 588 926 m 547 1224 q 543 1176 543 1203 q 566 1126 543 1149 q 647 1103 589 1103 q 751 1136 706 1103 q 811 1224 797 1169 l 853 1224 q 776 1103 833 1146 q 640 1061 718 1061 q 501 1176 501 1061 q 506 1224 501 1199 l 547 1224 z "},"ễ":{"ha":628,"x_min":135,"x_max":779,"o":"m 669 1014 q 578 1049 644 1014 q 497 1085 511 1085 q 408 1038 472 1085 l 388 1022 l 385 1065 q 507 1129 465 1129 q 597 1094 533 1129 q 675 1058 661 1058 q 754 1100 701 1058 l 772 1115 l 779 1074 q 669 1014 710 1014 m 186 190 q 186 153 186 190 q 227 76 186 117 q 328 35 268 35 q 535 65 431 35 l 568 75 l 568 29 q 329 -12 449 -12 q 188 38 240 -12 q 135 181 135 89 q 158 363 135 272 q 224 531 181 453 q 341 658 268 610 q 506 707 414 707 q 686 564 686 707 q 590 397 686 446 q 294 347 494 347 l 207 347 q 186 190 186 264 m 307 392 q 557 428 478 392 q 636 564 636 465 q 504 663 636 663 q 217 392 301 663 l 307 392 m 351 785 l 554 972 l 574 972 l 694 785 l 647 785 l 558 925 l 406 785 l 351 785 z "},"ỗ":{"ha":685,"x_min":138,"x_max":796,"o":"m 485 707 q 704 489 704 707 q 606 131 704 275 q 350 -12 507 -12 q 138 193 138 -12 q 238 558 138 410 q 485 707 338 707 m 350 32 q 569 165 485 32 q 654 489 654 297 q 612 615 654 568 q 485 663 569 663 q 272 524 356 663 q 188 193 188 386 q 350 32 188 32 m 686 1014 q 594 1049 661 1014 q 514 1085 528 1085 q 425 1038 489 1085 l 404 1022 l 401 1065 q 524 1129 482 1129 q 614 1094 550 1129 q 692 1058 678 1058 q 771 1100 718 1058 l 789 1115 l 796 1074 q 686 1014 726 1014 m 351 785 l 554 972 l 574 972 l 694 785 l 647 785 l 558 925 l 406 785 l 351 785 z "},"Ỳ":{"ha":674,"x_min":247,"x_max":871,"o":"m 476 1274 l 699 1139 l 678 1108 l 453 1236 l 476 1274 m 871 972 l 453 418 l 356 0 l 306 0 l 404 428 l 247 972 l 297 972 l 440 471 l 815 972 l 871 972 z "},"ỳ":{"ha":622,"x_min":149,"x_max":739,"o":"m 347 1001 l 569 869 l 544 839 l 322 967 l 347 1001 m 204 694 l 254 694 l 286 44 l 342 44 l 686 694 l 739 694 l 201 -317 l 149 -317 l 319 0 l 239 0 l 204 694 z "},"Ỹ":{"ha":674,"x_min":247,"x_max":871,"o":"m 696 1153 q 604 1188 671 1153 q 522 1224 538 1224 q 435 1176 499 1224 l 414 1161 l 411 1204 q 533 1268 492 1268 q 624 1233 560 1268 q 701 1197 688 1197 q 781 1239 728 1197 l 799 1254 l 806 1213 q 696 1153 736 1153 m 871 972 l 453 418 l 356 0 l 306 0 l 404 428 l 247 972 l 297 972 l 440 471 l 815 972 l 871 972 z "},"ỹ":{"ha":622,"x_min":149,"x_max":739,"o":"m 614 875 q 522 910 589 875 q 442 946 456 946 q 353 899 417 946 l 332 883 l 329 926 q 451 990 410 990 q 542 955 478 990 q 619 919 606 919 q 699 961 646 919 l 717 976 l 724 935 q 614 875 654 875 m 204 694 l 254 694 l 286 44 l 342 44 l 686 694 l 739 694 l 201 -317 l 149 -317 l 319 0 l 239 0 l 204 694 z "},"–":{"ha":889,"x_min":183,"x_max":878,"o":"m 183 397 l 878 397 l 878 350 l 183 350 l 183 397 z "},"—":{"ha":1583,"x_min":183,"x_max":1572,"o":"m 183 397 l 1572 397 l 1572 350 l 183 350 l 183 397 z "},"‘":{"ha":257,"x_min":238,"x_max":404,"o":"m 367 972 l 404 972 l 290 692 l 238 692 l 367 972 z "},"’":{"ha":257,"x_min":242,"x_max":408,"o":"m 279 692 l 242 692 l 356 972 l 408 972 l 279 692 z "},"‚":{"ha":260,"x_min":28,"x_max":194,"o":"m 65 -158 l 28 -158 l 142 122 l 194 122 l 65 -158 z "},"“":{"ha":447,"x_min":238,"x_max":594,"o":"m 367 972 l 404 972 l 290 692 l 238 692 l 367 972 m 557 972 l 594 972 l 481 692 l 428 692 l 557 972 z "},"”":{"ha":447,"x_min":242,"x_max":599,"o":"m 279 692 l 242 692 l 356 972 l 408 972 l 279 692 m 469 692 l 432 692 l 546 972 l 599 972 l 469 692 z "},"„":{"ha":431,"x_min":18,"x_max":365,"o":"m 328 125 l 365 125 l 251 -156 l 199 -156 l 328 125 m 147 125 l 185 125 l 71 -156 l 18 -156 l 147 125 z "},"†":{"ha":608,"x_min":188,"x_max":726,"o":"m 188 639 l 200 692 l 438 689 l 504 969 l 550 969 l 486 692 l 726 692 l 713 639 l 472 642 l 296 -108 l 250 -108 l 425 639 l 188 639 z "},"‡":{"ha":676,"x_min":113,"x_max":764,"o":"m 288 -108 l 353 169 l 113 169 l 124 219 l 364 217 l 463 639 l 225 639 l 238 692 l 475 689 l 542 969 l 588 969 l 524 692 l 764 692 l 750 639 l 510 642 l 411 219 l 650 219 l 638 169 l 399 172 l 333 -108 l 288 -108 z "},"•":{"ha":699,"x_min":257,"x_max":604,"o":"m 257 153 l 257 556 l 604 556 l 604 153 l 257 153 z "},"…":{"ha":914,"x_min":101,"x_max":840,"o":"m 101 0 l 128 115 l 178 115 l 151 0 l 101 0 m 436 0 l 463 115 l 513 115 l 486 0 l 436 0 m 764 0 l 790 115 l 840 115 l 814 0 l 764 0 z "},"‰":{"ha":1118,"x_min":219,"x_max":1128,"o":"m 410 929 q 285 804 315 929 q 269 717 269 747 q 338 640 269 640 q 469 788 433 640 q 481 858 481 829 q 410 929 481 929 m 228 11 l 724 974 l 767 963 l 271 1 l 228 11 m 232 789 q 421 974 279 974 q 529 867 529 974 q 518 788 529 833 q 443 644 494 692 q 326 596 392 596 q 233 644 260 596 q 221 705 221 668 q 232 789 221 742 m 660 378 q 768 271 768 378 q 757 192 768 238 q 683 48 733 96 q 566 0 632 0 q 474 47 500 0 q 460 110 460 74 q 471 193 460 147 q 660 378 518 378 m 719 263 q 649 333 719 333 q 568 299 599 333 q 524 208 538 265 q 510 122 510 151 q 576 44 510 44 q 708 192 672 44 q 719 263 719 233 m 1018 378 q 1126 271 1126 378 q 1115 192 1126 238 q 1041 48 1092 96 q 924 0 990 0 q 832 47 858 0 q 818 110 818 74 q 829 193 818 147 q 1018 378 876 378 m 1078 263 q 1007 333 1078 333 q 926 299 957 333 q 882 208 896 265 q 868 122 868 151 q 935 44 868 44 q 1067 192 1031 44 q 1078 263 1078 233 z "},"‹":{"ha":378,"x_min":136,"x_max":410,"o":"m 410 543 l 393 486 l 193 346 l 324 193 l 308 144 l 136 335 l 147 365 l 410 543 z "},"›":{"ha":378,"x_min":128,"x_max":401,"o":"m 128 144 l 144 201 l 344 342 l 214 494 l 229 543 l 401 353 l 390 322 l 128 144 z "},"⁄":{"ha":0,"x_min":-211,"x_max":425,"o":"m -165 -29 l -211 -11 l 379 944 l 425 925 l -165 -29 z "},"⁰":{"ha":389,"x_min":225,"x_max":568,"o":"m 453 1110 q 568 986 568 1110 q 553 882 568 942 q 450 686 517 740 q 339 651 406 651 q 225 775 225 651 q 240 883 225 821 q 343 1076 276 1025 q 453 1110 386 1110 m 517 979 q 440 1063 517 1063 q 351 1019 386 1063 q 297 898 315 976 q 278 781 278 819 q 351 699 278 699 q 440 741 404 699 q 497 862 476 783 q 517 979 517 940 z "},"⁴":{"ha":389,"x_min":214,"x_max":529,"o":"m 397 664 l 417 743 l 214 743 l 225 788 l 425 1097 l 481 1097 l 283 790 l 428 790 l 458 911 l 508 911 l 478 790 l 529 790 l 518 743 l 467 743 l 447 664 l 397 664 z "},"⁵":{"ha":389,"x_min":214,"x_max":579,"o":"m 328 907 q 426 938 367 938 q 514 904 485 938 q 532 856 532 883 q 525 800 532 828 q 347 651 486 651 q 233 664 292 651 l 214 668 l 231 717 q 349 700 300 700 q 471 800 444 700 q 476 836 476 821 q 414 889 476 889 q 324 867 365 889 l 310 858 l 267 861 l 338 1097 l 579 1097 l 568 1049 l 374 1049 l 328 907 z "},"⁶":{"ha":389,"x_min":236,"x_max":581,"o":"m 567 1053 q 460 1063 514 1063 q 372 1029 407 1063 q 315 918 336 996 q 436 944 378 944 q 521 907 494 944 q 538 856 538 883 q 531 804 538 829 q 346 651 492 651 q 236 771 236 651 q 253 882 236 818 q 337 1058 283 1007 q 474 1110 390 1110 q 565 1100 511 1110 l 581 1097 l 567 1053 m 289 781 q 358 699 289 699 q 478 804 450 699 q 483 848 483 829 q 476 878 483 867 q 425 897 463 897 q 361 889 388 897 q 301 867 301 874 q 289 781 289 817 z "},"⁷":{"ha":389,"x_min":253,"x_max":572,"o":"m 292 1050 l 303 1097 l 572 1097 l 551 1013 l 307 653 l 253 668 l 497 1015 l 506 1050 l 292 1050 z "},"⁸":{"ha":389,"x_min":207,"x_max":581,"o":"m 328 892 q 271 963 271 915 q 275 996 271 976 q 454 1110 303 1110 q 579 1029 579 1110 q 572 982 579 1014 q 472 890 556 915 q 535 821 535 868 q 529 782 535 804 q 463 679 510 707 q 342 651 417 651 q 238 676 268 651 q 208 739 208 701 q 217 790 208 754 q 328 892 236 863 m 351 699 q 476 781 456 699 q 479 811 479 796 q 469 840 479 826 q 418 865 458 854 l 368 865 q 299 835 322 854 q 267 775 276 817 q 264 753 264 763 q 351 699 264 699 m 442 1063 q 328 996 344 1063 q 325 968 325 982 q 334 942 325 954 q 381 917 343 929 l 431 917 q 494 944 476 928 q 525 1014 525 969 q 510 1049 525 1035 q 442 1063 494 1063 z "},"⁹":{"ha":389,"x_min":213,"x_max":563,"o":"m 335 699 q 488 842 449 699 q 364 818 421 818 q 279 858 307 818 q 261 910 261 882 q 268 964 261 939 q 334 1072 285 1033 q 453 1110 383 1110 q 563 988 563 1110 q 546 876 563 942 q 463 701 514 750 q 322 651 413 651 q 228 661 276 651 l 213 665 l 228 708 q 335 699 283 699 m 511 976 q 440 1063 511 1063 q 321 965 346 1063 q 317 928 317 947 q 326 893 317 910 q 385 865 343 865 q 481 888 421 865 l 500 894 q 511 976 511 942 z "},"₀":{"ha":389,"x_min":74,"x_max":417,"o":"m 301 446 q 417 322 417 446 q 401 218 417 278 q 299 22 365 76 q 188 -12 254 -12 q 74 111 74 -12 q 89 219 74 157 q 192 413 125 361 q 301 446 235 446 m 365 315 q 289 399 365 399 q 199 356 235 399 q 145 234 164 313 q 126 117 126 156 q 200 35 126 35 q 289 77 253 35 q 345 198 325 119 q 365 315 365 276 z "},"₁":{"ha":389,"x_min":131,"x_max":340,"o":"m 131 201 l 290 294 l 340 294 l 233 -139 l 183 -139 l 278 240 l 144 163 l 131 201 z "},"₂":{"ha":389,"x_min":25,"x_max":374,"o":"m 321 211 q 256 260 321 260 q 147 247 213 260 l 126 243 l 135 289 q 269 307 211 307 q 374 229 374 307 q 325 106 374 163 q 235 21 293 69 l 101 -92 l 307 -92 l 296 -139 l 25 -139 l 36 -92 l 208 53 q 321 211 321 146 z "},"₃":{"ha":389,"x_min":14,"x_max":378,"o":"m 278 88 q 338 24 338 68 q 331 -22 338 6 q 158 -151 299 -151 q 35 -140 90 -151 l 14 -136 l 29 -92 q 171 -104 101 -104 q 278 -24 258 -104 q 282 8 282 -6 q 217 61 282 61 l 126 61 l 138 108 l 228 108 q 283 135 253 108 q 324 217 324 171 q 312 247 324 235 q 264 260 300 260 q 139 250 210 260 l 119 247 l 126 292 q 269 307 204 307 q 356 285 335 307 q 378 240 378 264 q 372 196 378 217 q 278 88 351 119 z "},"₄":{"ha":389,"x_min":43,"x_max":358,"o":"m 226 -139 l 246 -60 l 43 -60 l 54 -15 l 254 294 l 310 294 l 113 -12 l 257 -12 l 288 108 l 338 108 l 307 -12 l 358 -12 l 347 -60 l 296 -60 l 276 -139 l 226 -139 z "},"₅":{"ha":389,"x_min":18,"x_max":383,"o":"m 132 104 q 230 135 171 135 q 318 101 289 135 q 336 53 336 81 q 329 -3 336 25 q 151 -151 290 -151 q 38 -139 96 -151 l 18 -135 l 35 -86 q 153 -103 104 -103 q 275 -3 249 -103 q 281 33 281 18 q 218 86 281 86 q 128 64 169 86 l 114 56 l 71 58 l 142 294 l 383 294 l 372 246 l 178 246 l 132 104 z "},"₆":{"ha":389,"x_min":49,"x_max":393,"o":"m 379 250 q 273 260 326 260 q 184 226 219 260 q 128 115 149 193 q 249 142 190 142 q 333 104 307 142 q 350 53 350 81 q 343 1 350 26 q 158 -151 304 -151 q 50 -31 50 -151 q 65 79 50 15 q 149 256 96 204 q 286 307 203 307 q 378 297 324 307 l 393 294 l 379 250 m 101 -22 q 171 -104 101 -104 q 290 1 263 -104 q 296 45 296 26 q 289 75 296 64 q 238 94 275 94 q 172 86 200 94 q 114 64 114 71 q 101 -22 101 14 z "},"₇":{"ha":389,"x_min":78,"x_max":397,"o":"m 117 247 l 128 294 l 397 294 l 376 210 l 132 -150 l 78 -135 l 322 213 l 331 247 l 117 247 z "},"₈":{"ha":389,"x_min":24,"x_max":397,"o":"m 144 89 q 88 160 88 113 q 92 193 88 174 q 271 307 119 307 q 396 226 396 307 q 389 179 396 211 q 289 88 372 113 q 351 18 351 65 q 346 -21 351 1 q 280 -124 326 -96 q 159 -151 233 -151 q 55 -126 85 -151 q 25 -64 25 -101 q 33 -12 25 -49 q 144 89 53 60 m 168 -104 q 293 -22 272 -104 q 296 8 296 -7 q 285 38 296 24 q 235 63 275 51 l 185 63 q 116 33 139 51 q 83 -28 93 14 q 81 -50 81 -40 q 168 -104 81 -104 m 258 260 q 144 193 161 260 q 142 165 142 179 q 151 139 142 151 q 197 114 160 126 l 247 114 q 311 142 293 125 q 342 211 342 167 q 326 246 342 232 q 258 260 311 260 z "},"₉":{"ha":389,"x_min":25,"x_max":375,"o":"m 147 -104 q 300 39 261 -104 q 176 15 233 15 q 92 56 119 15 q 75 108 75 79 q 81 161 75 136 q 147 269 97 231 q 265 307 196 307 q 375 185 375 307 q 358 74 375 139 q 276 -102 326 -53 q 135 -151 225 -151 q 42 -142 89 -151 l 25 -137 l 40 -94 q 147 -104 96 -104 m 324 174 q 253 260 324 260 q 133 163 158 260 q 129 126 129 144 q 139 90 129 107 q 197 63 156 63 q 294 85 233 63 l 313 92 q 324 174 324 139 z "},"€":{"ha":778,"x_min":147,"x_max":883,"o":"m 456 -12 q 213 250 213 -12 q 215 315 213 271 l 147 315 l 158 360 l 219 360 q 258 540 231 454 l 199 540 l 210 585 l 274 585 q 431 835 331 739 q 669 931 532 931 q 853 911 758 931 l 883 906 l 874 864 q 654 886 758 886 q 464 803 550 886 q 326 585 378 719 l 751 585 l 742 540 l 310 540 q 269 360 279 449 l 700 360 l 690 315 l 265 315 q 263 250 263 293 q 310 86 263 139 q 463 33 358 33 q 646 53 554 33 l 676 58 l 675 14 q 456 -12 561 -12 z "},"™":{"ha":981,"x_min":308,"x_max":1011,"o":"m 308 819 l 308 863 l 586 863 l 586 819 l 471 819 l 471 461 l 425 461 l 425 819 l 308 819 m 635 460 l 635 863 l 704 863 l 821 526 l 942 863 l 1011 863 l 1011 460 l 967 460 l 967 818 l 844 475 l 796 475 l 679 818 l 679 460 l 635 460 z "},"Ω":{"ha":778,"x_min":122,"x_max":786,"o":"m 122 35 l 329 35 q 283 126 311 69 q 210 312 256 183 q 164 514 164 440 q 224 831 164 732 q 454 931 283 931 q 685 831 625 931 q 744 514 744 732 q 703 320 744 440 q 619 117 661 200 l 578 35 l 786 35 l 786 -12 l 524 -12 l 524 28 q 640 294 588 150 q 692 510 692 438 q 687 637 692 582 q 667 742 682 692 q 628 822 653 793 q 454 883 571 883 q 281 822 336 883 q 217 500 217 751 q 258 319 217 438 q 342 114 300 201 l 385 28 l 385 -12 l 122 -12 l 122 35 z "},"∂":{"ha":778,"x_min":197,"x_max":794,"o":"m 489 1026 q 719 907 644 1026 q 794 517 794 788 q 724 117 794 246 q 496 -12 653 -12 q 197 297 197 -12 q 274 510 197 429 q 481 590 350 590 q 601 578 535 590 q 706 556 667 567 l 743 543 q 679 876 740 772 q 481 979 618 979 q 381 961 436 979 q 292 925 325 943 l 258 907 l 253 951 q 289 972 267 960 q 374 1006 311 985 q 489 1026 436 1026 m 744 494 q 485 543 596 543 q 310 475 374 543 q 247 289 247 407 q 312 103 247 171 q 501 35 376 35 q 684 148 626 35 q 744 494 742 261 z "},"∆":{"ha":778,"x_min":121,"x_max":733,"o":"m 121 0 l 121 36 l 374 917 l 479 917 l 732 36 l 733 0 l 121 0 m 443 869 l 408 869 l 176 47 l 675 47 l 443 869 z "},"∏":{"ha":778,"x_min":190,"x_max":885,"o":"m 724 -210 l 724 994 l 351 994 l 351 -210 l 301 -210 l 301 994 l 190 994 l 190 1042 l 885 1042 l 885 994 l 774 994 l 774 -210 l 724 -210 z "},"∑":{"ha":778,"x_min":171,"x_max":796,"o":"m 171 1040 l 796 1040 l 796 993 l 222 993 l 222 956 l 617 456 l 617 414 l 222 -118 l 222 -162 l 796 -162 l 796 -210 l 171 -210 l 171 -106 l 568 436 l 171 939 l 171 1040 z "},"−":{"ha":778,"x_min":176,"x_max":763,"o":"m 176 325 l 176 372 l 763 372 l 763 325 l 176 325 z "},"√":{"ha":778,"x_min":171,"x_max":947,"o":"m 171 578 l 171 625 l 300 625 l 511 -150 l 522 -150 l 896 1067 l 947 1067 l 557 -194 l 474 -194 l 256 578 l 171 578 z "},"∞":{"ha":778,"x_min":138,"x_max":826,"o":"m 299 168 q 138 406 138 168 q 177 581 138 518 q 292 643 217 643 q 408 599 367 643 q 482 467 449 556 q 556 599 515 556 q 672 643 596 643 q 787 581 747 643 q 826 406 826 518 q 665 168 826 168 q 555 212 594 168 q 482 343 515 256 q 411 203 447 239 q 299 168 375 168 m 297 594 q 190 406 190 594 q 297 217 190 217 q 351 224 336 217 q 374 235 365 232 q 391 251 382 238 q 405 269 400 264 q 419 296 410 275 q 431 325 428 317 q 461 406 446 361 q 378 567 411 539 q 297 594 342 594 m 667 217 q 774 406 774 217 q 667 594 774 594 q 560 532 596 594 q 503 406 533 488 q 586 244 553 272 q 667 217 622 217 z "},"∫":{"ha":778,"x_min":217,"x_max":750,"o":"m 507 0 q 467 -193 507 -137 q 331 -249 426 -249 l 217 -242 l 219 -196 q 331 -203 286 -203 q 430 -158 401 -203 q 458 0 458 -114 l 458 783 q 503 1014 458 946 q 635 1082 547 1082 l 750 1074 l 747 1029 q 631 1036 690 1036 q 539 979 571 1036 q 507 783 507 922 l 507 0 z "},"≈":{"ha":778,"x_min":174,"x_max":763,"o":"m 606 381 q 461 431 564 381 q 333 482 358 482 q 273 464 308 482 q 214 428 238 446 l 189 410 l 174 454 q 329 529 260 529 q 474 478 371 529 q 601 428 576 428 q 722 482 647 428 l 747 500 l 763 457 q 606 381 675 381 m 606 156 q 461 206 564 156 q 333 257 358 257 q 273 239 308 257 q 214 203 238 221 l 189 185 l 174 229 q 329 304 260 304 q 474 253 371 304 q 601 203 576 203 q 722 257 647 203 l 747 275 l 763 232 q 606 156 675 156 z "},"≠":{"ha":778,"x_min":174,"x_max":763,"o":"m 174 442 l 174 489 l 490 489 l 585 707 l 629 689 l 542 489 l 763 489 l 763 442 l 521 442 l 439 254 l 763 254 l 763 207 l 418 207 l 324 -12 l 279 6 l 367 207 l 174 207 l 174 254 l 388 254 l 469 442 l 174 442 z "},"≤":{"ha":778,"x_min":151,"x_max":740,"o":"m 740 619 l 215 429 l 740 224 l 740 169 l 151 403 l 151 453 l 740 674 l 740 619 m 151 33 l 151 81 l 740 81 l 740 33 l 151 33 z "},"≥":{"ha":778,"x_min":172,"x_max":761,"o":"m 697 429 l 172 619 l 172 674 l 761 453 l 761 403 l 172 169 l 172 224 l 697 429 m 761 81 l 761 33 l 172 33 l 172 81 l 761 81 z "},"◊":{"ha":778,"x_min":188,"x_max":799,"o":"m 188 461 l 440 917 l 546 917 l 799 461 l 546 0 l 440 0 l 188 461 m 740 461 l 511 869 l 474 869 l 246 461 l 474 47 l 511 47 l 740 461 z "},"":{"ha":253,"x_min":-137,"x_max":311,"o":"m 101 0 l 263 694 l 311 694 l 150 0 q 71 -210 113 -160 q -121 -332 29 -261 l -137 -290 q 35 -178 -1 -222 q 101 0 71 -135 z "},"":{"ha":224,"x_min":-32,"x_max":126,"o":"m -32 -368 l 79 -101 l 126 -101 l 4 -368 l -32 -368 z "}}}
